/* XPM */
static char *result[] = {
/* columns rows colors chars-per-pixel */
"64 64 178 2 ",
"   c black",
".  c #010101",
"X  c #010201",
"o  c #010102",
"O  c #020202",
"+  c gray1",
"@  c gray2",
"#  c #060606",
"$  c #070707",
"%  c #070708",
"&  c #090909",
"*  c gray4",
"=  c #0B0B0B",
"-  c #0C0C0C",
";  c gray5",
":  c #0E0E0E",
">  c #0F0F0E",
",  c gray6",
"<  c #101010",
"1  c #111011",
"2  c #111111",
"3  c gray7",
"4  c #131313",
"5  c gray8",
"6  c #151515",
"7  c #161616",
"8  c gray9",
"9  c #181818",
"0  c #191919",
"q  c #19191A",
"w  c gray10",
"e  c #1B1B1B",
"r  c gray11",
"t  c #1D1D1D",
"y  c #1E1E1E",
"u  c gray12",
"i  c #202020",
"p  c gray13",
"a  c #222222",
"s  c #232323",
"d  c #232423",
"f  c #242423",
"g  c gray14",
"h  c #252425",
"j  c #252525",
"k  c gray15",
"l  c #272727",
"z  c #282828",
"x  c gray16",
"c  c #2A2A2A",
"v  c gray17",
"b  c #2C2C2C",
"n  c gray18",
"m  c #2F2F2E",
"M  c #2F2F2F",
"N  c gray19",
"B  c #303031",
"V  c #313131",
"C  c #323232",
"Z  c gray20",
"A  c #343434",
"S  c #353535",
"D  c gray21",
"F  c #373737",
"G  c #38353A",
"H  c #393939",
"J  c #3A3A3A",
"K  c gray23",
"L  c #3C3C3C",
"P  c gray24",
"I  c #3F3F3F",
"U  c gray25",
"Y  c #434443",
"T  c #444444",
"R  c gray27",
"E  c gray28",
"W  c #474847",
"Q  c #505050",
"!  c gray32",
"~  c #5A5A5A",
"^  c #5B5B5B",
"/  c #5B5C5B",
"(  c #5D5D5D",
")  c #656565",
"_  c gray43",
"`  c #6F6F6F",
"'  c #767676",
"]  c #86B807",
"[  c #85B808",
"{  c #87B90F",
"}  c #87B913",
"|  c #88BA15",
" . c #88B91C",
".. c #89BB1D",
"X. c #8ABB21",
"o. c #8BBC23",
"O. c #8DBC27",
"+. c #8CBD27",
"@. c #8EBD28",
"#. c #8FBD2A",
"$. c #8FBD2C",
"%. c #90BE30",
"&. c #90BE31",
"*. c #91BF31",
"=. c #91BF33",
"-. c #92BF36",
";. c #92C036",
":. c #93C037",
">. c #93C138",
",. c #94C13A",
"<. c #94C13C",
"1. c #96C13D",
"2. c #95C23D",
"3. c #97C23E",
"4. c #97C240",
"5. c #97C241",
"6. c #96C341",
"7. c #98C341",
"8. c #98C343",
"9. c #98C344",
"0. c #99C344",
"q. c #99C445",
"w. c #9AC447",
"e. c #9CC64D",
"r. c #9EC750",
"t. c #9EC752",
"y. c #9FC853",
"u. c #A0CE42",
"i. c #A0C956",
"p. c #A2C957",
"a. c #A3CD56",
"s. c #A2CA58",
"d. c #A3C95A",
"f. c #A3CA5A",
"g. c #A7CC61",
"h. c #A7CD62",
"j. c #A8CD65",
"k. c #A9CE67",
"l. c #B1D174",
"z. c #B3D179",
"x. c #B3D379",
"c. c #8D8D8D",
"v. c #8E8E8D",
"b. c #909090",
"n. c gray58",
"m. c #959595",
"M. c #989898",
"N. c #9D9D9D",
"B. c #A0A0A0",
"V. c gray64",
"C. c #A4A4A4",
"Z. c gray65",
"A. c #AAAAAA",
"S. c #AEAEAE",
"D. c #AFAFAF",
"F. c #B1B1B1",
"G. c gray70",
"H. c gray72",
"J. c gray80",
"K. c #CECECE",
"L. c LightGray",
"P. c gray85",
"I. c #DADADA",
"U. c #E4E4E4",
"Y. c gray90",
"T. c #E6E6E6",
"R. c #EAEAEA",
"E. c gray92",
"W. c gray95",
"Q. c #F4F4F4",
"!. c gray96",
"~. c #F6F6F6",
"^. c #F8F8F8",
"/. c gray98",
"(. c #FDFDFD",
"). c #FEFEFE",
"_. c white",
"`. c None",
/* pixels */
"`.`.`.`.`.`.`.`.`.`.`.`.`.`.`.`.`.`.`.`.`.`.`.`.`.`.`.`.`.`.`.`.`.`.`.`.`.`.`.`.`.`.`.`.`.`.`.`.`.`.`.`.`.`.`.`.`.`.`.`.`.`.`.`.",
"`.`.`.`.`.`.`.`.`.`.`.`.`.`.`.`.`.`.`.`.`.`.`.`.`.`.`.`.`.`.`.`.`.`.`.`.`.`.`.`.`.`.`.`.`.`.`.`.`.`.`.`.`.`.`.`.`.`.`.`.`.`.`.`.",
"`.`.`.`.`.`.`.`.`.`.`.`.`.`.`.`.`.`.`.`.`.`.`.`.`.`.`.`.`.`.`.`.`.`.`.`.`.`.`.`.`.`.`.`.`.`.`.`.`.`.`.`.`.`.`.`.`.`.`.`.`.`.`.`.",
"`.`.`.`.`.`.`.`.`.`.`.`.`.`.`.`.`.`.`.`.`.`.`.`.`.`.`.`.`.`.`.`.`.`.`.`.`.`.`.`.`.`.`.`.`.`.`.`.`.`.`.`.j.@.`.`.`.`.`.`.`.`.`.`.",
"`.`.`.`.`.`.`.`.`.`.`.`.`.`.`.`.`.`.`.`.`.`.`.`.`.`.`.`.`.`.`.`.`.`.`.`.`.`.`.`.`.`.`.`.`.`.`.`.`.`.`.`.`.:.@.s.`.`.`.`.`.`.`.`.",
"`.`.`.`.`.`.`.`.`.`.`.`.`.`.`.`.`.`.`.`.`.`.`.`.`.`.`.`.`.`.`.`.`.`.`.`.`.`.`.`.`.`.`.`.`.`.`.`.`.`.`.`.`.$.6.| k.`.`.`.`.`.`.`.",
"`.`.`.`.`.`.`.`.`.`.`.`.`.`.`.`.`.`.`.`.`.`.`.`.`.`.`.`.`.`.`.`.`.`.`.`.`.`.`.`.`.`.`.`.`.`.`.`.`.`.`.`.q.;.8.8.| `.`.`.`.`.`.`.",
"`.`.`.`.`.`.`.`.`.`.`.`.`.`.`.`.`.`.`.`.`.`.`.`.`.`.`.`.`.`.`.`.`.`.`.`.`.`.`.`.`.`.`.`.`.`.`.`.`.`.`.d.o.q.8.9.>.+.`.`.`.`.`.`.",
"`.`.`.`.`.`.`.`.`.`.`.`.`.`.`.`.`.`.`.`.`.`.`.`.`.`.`.`.`.`.`.`.`.`.`.`.`.`.`.`.`.`.`.`.`.`.`.`.`.`.l.{ 9.8.8.8.q.X.g.`.`.`.`.`.",
"`.`.`.`.`.`.`.`.`.`.`.`.`.`.`.`.`.`.`.`.`.`.`.`.`.`.`.`.`.`.`.`.`.`.`.`.`.`.`.`.`.`.`.`.`.`.`.`.`.`.} 3.0.7.<.8.8.4.-.`.`.`.`.`.",
"`.`.`.`.`.`.`.`.`.`.`.`.`.`.`.`.`.`.`.`.`.`.`.`.`.`.`.`.`.`.`.`.`.`.`.`.`.`.`.`.`.`.`.`.`.`.`.`.`.<.&.q.5.<.i.w.7.0.@.`.`.`.`.`.",
"`.`.`.`.`.`.`.`.`.`.`.`.`.`.`.`.`.`.`.`.`.`.`.`.`.`.`.`.`.`.`.`.`.`.`.`.`.`.`.`.`.`.`.`.`.`.`.`.`...q.q.%.`.`.7.8.8.=.f.`.`.`.`.",
"`.`.`.`.`.`.`.`.`.`.`.`.`.`.`.`.`.`.`.`.`.`.`.`.`.`.`.`.`.`.`.`.`.`.`.`.`.`.`.`.`.`.`.`.`.`.`.`.y.*.q.@.h.`.`.+.q.8.,.r.`.`.`.`.",
"`.`.`.`.`.`.`.`.`.`.`.`.`.`.`.`.`.`.`.`.`.`.`.`.`.`.`.`.`.`.`.`.`.`.`.`.`.`.`.`.`.`.`.`.`.`.`.`.9.6.>.:.`.`.`.4.@.q.8.8.`.`.`.`.",
"`.`.`.`.`.`.`.`.`.`.`.`.`.`.`.`.`.`.`.`.`.`.`.`.`.`.`.`.`.`.`.`.`.`.`.`.`.`.`.`.`.`.`.`.`.`.`.`.q.4.O.`.`.`.`.`.#.>.7.q.`.`.`.`.",
"`.`.`.`.`.`.`.`.`.`.`.`.`.`.`.`.`.`.`.`.`.`.`.`.`.`.`.`.`.`.`.`.`.`.`.`.`.`.`.`.`.`.`.`.`.`.`.`.p.o.1.`.`.`.`.`.`.@.$.i.`.`.`.`.",
"`.`.`.`.`.`.`.`.`.`.`.`.`.`.`.`.`.`.`.`.`.`.`.`.`.`.`.`.`.`.`.`.`.`.`.`.`.`.`.`.`.`.`.`.`.`.`.`.`.] e.`.`.`.`.`.`.w.[ `.`.`.`.`.",
"`.`.`.`.`.`.`.`.`.`.`.`.`.`.`.`.`.`.`.`.`.`.`.`.`.`.`.`.`.`.`.`.`.`.`.`.`.`.`.`.`.`.`.`.`.`.`.`.`.a. .`.`.`.`.`.`.o.t.`.`.`.`.`.",
"`.`.`.`.`.`.`.`.`.`.`.`.`.`.`.`.`.`.`.`.`.`.`.`.`.`.`.`.`.`.`.`.`.`.`.`.`.`.`.`.`.`.`.`.`.`.`.`.`.`.u.z.`.`.`.`.x.2.`.`.`.`.`.`.",
"`.`.`.`.`.`.`.`.`.`.`.`.`.`.`.`.`.`.`.`.`.`.`.`.`.`.`.`.`.`.`.`.`.`.`.`.`.`.`.`.`.`.`.`.`.`.`.`.`.`.`.`.`.`.`.`.`.`.`.`.`.`.`.`.",
"`.`.`.`.`.`.`.`.`.`.`.`.`.`.`.`.`.`.`.`.`.`.`.`.`.`.`.`.I F A j j Z F I `.`.`.`.`.`.`.C 1 s `.`.`.`.`.`.`.`.`.`.`.`.`.`.`.`.`.`.",
"`.`.`.`.`.`.`.`.`.`.`.`.`.`.`.`.`.`.`.`.`.`.`.`.T V y 8 9 9 w j j w 0 9 8 y V Y `.`.m * l a r ! z > G `.`.`.`.`.`.`.`.`.`.`.`.`.",
"`.`.`.`.`.`.`.`.`.`.`.`.`.`.`.`.`.`.`.`.`.`.E h 2 w s k g u 9 5 5 9 a l j s w 1 Z B 3 l j j z 4 w v + O `.`.`.`.`.`.`.`.`.`.`.`.",
"`.`.`.`.`.`.`.`.`.`.`.`.`.`.`.`.`.`.`.`.`.g 2 r z j 3   . 4 k N N k & 9 c j j l w 8 l j j j j j j 0 z `.`.`.`.`.`.`.`.`.`.`.`.`.",
"`.`.`.`.`.`.`.`.`.`.`.`.`.`.`.`.`.`.`.^ 4 0 z k $   M ` Z.K.Y.Q.Q.Y.A.t e j j j j j j j j j j j j 4 Q `.`.`.`.`.`.`.`.`.`.`.`.`.",
"`.`.`.`.`.`.`.`.`.`.`.`.`.`.`.`.`.`.N 2 u v 4   I V.Q._._._._._._._._.c.  j j j j j j j j j j j j z 4 `.`.`.`.`.`.`.`.`.`.`.`.`.",
"`.`.`.`.`.`.`.`.`.`.`.`.`.`.`.`.`.R $ s c O 5 m._._._._._._._._._._._.N.  j j j j j j j j j j j j j i a `.`.`.`.`.`.`.`.`.`.`.`.",
"`.`.`.`.`.`.`.`.`.`.`.`.`.`.`.`.( @ j x   Z I._._._._._._._._.W.!.(.J.x 7 j j j j j j j j j j j j j z : `.`.`.`.`.`.`.`.`.`.`.`.",
"`.`.`.`.`.`.`.`.`.`.`.`.`.`.`.`.o u c   U /._._._._._.P.v.~ P n Z L 0 3 c j j j j j j j j j j j j l % V `.`.`.`.`.`.`.`.`.`.`.`.",
"`.`.`.`.`.`.`.`.`.`.`.`.`.`.`.i 4 b O N (._._._._.T.) 3   O : 6 4 < r z j j j j j j j j j j j j z 2 f `.`.`.`.`.`.`.`.`.`.`.`.`.",
"`.`.`.`.`.`.`.`.`.`.`.`.`.`.^ O c 5 : T._._._._.D.6   w l k j j j j j j j j j j j j j j j j j j 6 A `.`.`.`.`.`.`.`.`.`.`.`.`.`.",
"`.`.`.`.`.`.`.`.`.`.`.`.`.`.a 9 l   B._._._._.C.  = x j j j j j j j j j j j j j j j j j j j j j 7 Z `.`.`.`.`.`.`.`.`.`.`.`.`.`.",
"`.`.`.`.`.`.`.`.`.`.`.`.`./ # x $ I _._._._.H.  6 x j j j j j j j j j j j j j j j j j j j j j j z # ( `.`.`.`.`.`.`.`.`.`.`.`.`.",
"`.`.`.`.`.`.`.`.`.`.`.`.`.Z 6 k   G._._._.E.5 - x j j j j j j j j j j j j j j j j j j j j j j j j 6 Z `.`.`.`.`.`.`.`.`.`.`.`.`.",
"`.`.`.`.`.`.`.`.`.`.`.`.`.w s 3 V )._._._._   x j j j j j j j j j j j j j j j j j j j j j j j j j s w `.`.`.`.`.`.`.`.`.`.`.`.`.",
"`.`.`.`.`.`.`.`.`.`.`.`.`., k   ' _._._.U.4 w j j j j j j j j j j j j j j j j j j j j j j j j j j k , `.`.`.`.`.`.`.`.`.`.`.`.`.",
"`.`.`.`.`.`.`.`.`.`.`.`.W 4 j . S._._._.n.  l j j j j j j j j j j j j j j j j j j j j j j j j j j j 5 E `.`.`.`.`.`.`.`.`.`.`.`.",
"`.`.`.`.`.`.`.`.`.`.`.`.H 9 u 6 L._._._.( . k j j j j j j j j j j j j j j j j j j j j j j j j j j j 7 J `.`.`.`.`.`.`.`.`.`.`.`.",
"`.`.`.`.`.`.`.`.`.`.`.`.V y 8 z R._._.).P , j j j j j j j j j j j j j j j j j j j j j j j j j j j j q A `.`.`.`.`.`.`.`.`.`.`.`.",
"`.`.`.`.`.`.`.`.`.`.`.`.j k 4 V !._._.!.M 6 j j j j j j j j j j j j j j j j j j j j j j j j j j j j k g `.`.`.`.`.`.`.`.`.`.`.`.",
"`.`.`.`.`.`.`.`.`.`.`.`.j k 4 C ~._._.~.Z 4 j j j j j j j j j j j j j j j j j j j j j j j j j j j j k g `.`.`.`.`.`.`.`.`.`.`.`.",
"`.`.`.`.`.`.`.`.`.`.`.`.V y 8 z ^._._._.T ; j j j j j j j j j j j j j j j j j j j j j j j j j j j j 0 S `.`.`.`.`.`.`.`.`.`.`.`.",
"`.`.`.`.`.`.`.`.`.`.`.`.H 9 a $ F._._.I.9 e j j j j j j j j j j j j j j j j j j j j j j j j j j j j 7 K `.`.`.`.`.`.`.`.`.`.`.`.",
"`.`.`.`.`.`.`.`.`.`.`.`.W 4 l 8 i b.M.n 2 z j j j j j j j j j j j j j j j j j j j j j j j j j j j j 5 E `.`.`.`.`.`.`.`.`.`.`.`.",
"`.`.`.`.`.`.`.`.`.`.`.`.`., k c w     5 c j j j j j j j j j j j j j j j j j j j j j j j j j j j j k , `.`.`.`.`.`.`.`.`.`.`.`.`.",
"`.`.`.`.`.`.`.`.`.`.`.`.`.w s j j g g j j j j j j j j j j j j j j j j j j j j j j j j j j j j j j s w `.`.`.`.`.`.`.`.`.`.`.`.`.",
"`.`.`.`.`.`.`.`.`.`.`.`.`.Z 6 j j j j j j j j j j j j j j j j j j j j j j j j j j j j j j j j j j 6 Z `.`.`.`.`.`.`.`.`.`.`.`.`.",
"`.`.`.`.`.`.`.`.`.`.`.`.`.( # z j j j j j j j j j j j j j j j j j j j j j j j j j j j j j j j j z # ( `.`.`.`.`.`.`.`.`.`.`.`.`.",
"`.`.`.`.`.`.`.`.`.`.`.`.`.`.p 0 j j j j j j j j j j j j j j j j j j j j j j j j j j j j j j j j 0 p `.`.`.`.`.`.`.`.`.`.`.`.`.`.",
"`.`.`.`.`.`.`.`.`.`.`.`.`.`.^ O z j j j j j j j j j j j j j j j j j j j j j j j j j j j j j j z O ^ `.`.`.`.`.`.`.`.`.`.`.`.`.`.",
"`.`.`.`.`.`.`.`.`.`.`.`.`.`.`.i 4 l j j j j j j j j j j j j j j j j j j j j j j j j j j j j l 4 i `.`.`.`.`.`.`.`.`.`.`.`.`.`.`.",
"`.`.`.`.`.`.`.`.`.`.`.`.`.`.`.`.o u k j j j j j j j j j j j j j j j j j j j j j j j j j j k u X `.`.`.`.`.`.`.`.`.`.`.`.`.`.`.`.",
"`.`.`.`.`.`.`.`.`.`.`.`.`.`.`.`.( @ j j j j j j j j j j j j j j j j j j j j j j j j j j j j @ ( `.`.`.`.`.`.`.`.`.`.`.`.`.`.`.`.",
"`.`.`.`.`.`.`.`.`.`.`.`.`.`.`.`.`.R $ s k j j j j j j j j j j j j j j j j j j j j j j k s $ R `.`.`.`.`.`.`.`.`.`.`.`.`.`.`.`.`.",
"`.`.`.`.`.`.`.`.`.`.`.`.`.`.`.`.`.`.N 1 u l j j j j j j j j j j j j j j j j j j j j l u < N `.`.`.`.`.`.`.`.`.`.`.`.`.`.`.`.`.`.",
"`.`.`.`.`.`.`.`.`.`.`.`.`.`.`.`.`.`.`.^ 4 0 k j j j j j j j j j j j j j j j j j j k 0 4 ^ `.`.`.`.`.`.`.`.`.`.`.`.`.`.`.`.`.`.`.",
"`.`.`.`.`.`.`.`.`.`.`.`.`.`.`.`.`.`.`.`.`.d 2 r l j j j j j j j j j j j j j j l r 2 f `.`.`.`.`.`.`.`.`.`.`.`.`.`.`.`.`.`.`.`.`.",
"`.`.`.`.`.`.`.`.`.`.`.`.`.`.`.`.`.`.`.`.`.`.E h 2 w s j j j j j j j j j j s w 2 g E `.`.`.`.`.`.`.`.`.`.`.`.`.`.`.`.`.`.`.`.`.`.",
"`.`.`.`.`.`.`.`.`.`.`.`.`.`.`.`.`.`.`.`.`.`.`.`.T V y 8 8 w y j j y w 8 8 y V T `.`.`.`.`.`.`.`.`.`.`.`.`.`.`.`.`.`.`.`.`.`.`.`.",
"`.`.`.`.`.`.`.`.`.`.`.`.`.`.`.`.`.`.`.`.`.`.`.`.`.`.`.`.I D N j j N D I `.`.`.`.`.`.`.`.`.`.`.`.`.`.`.`.`.`.`.`.`.`.`.`.`.`.`.`.",
"`.`.`.`.`.`.`.`.`.`.`.`.`.`.`.`.`.`.`.`.`.`.`.`.`.`.`.`.`.`.`.`.`.`.`.`.`.`.`.`.`.`.`.`.`.`.`.`.`.`.`.`.`.`.`.`.`.`.`.`.`.`.`.`.",
"`.`.`.`.`.`.`.`.`.`.`.`.`.`.`.`.`.`.`.`.`.`.`.`.`.`.`.`.`.`.`.`.`.`.`.`.`.`.`.`.`.`.`.`.`.`.`.`.`.`.`.`.`.`.`.`.`.`.`.`.`.`.`.`.",
"`.`.`.`.`.`.`.`.`.`.`.`.`.`.`.`.`.`.`.`.`.`.`.`.`.`.`.`.`.`.`.`.`.`.`.`.`.`.`.`.`.`.`.`.`.`.`.`.`.`.`.`.`.`.`.`.`.`.`.`.`.`.`.`.",
"`.`.`.`.`.`.`.`.`.`.`.`.`.`.`.`.`.`.`.`.`.`.`.`.`.`.`.`.`.`.`.`.`.`.`.`.`.`.`.`.`.`.`.`.`.`.`.`.`.`.`.`.`.`.`.`.`.`.`.`.`.`.`.`."
};
