/* XPM */
static char *result[] = {
/* columns rows colors chars-per-pixel */
"64 64 56 1 ",
"  c #060606",
". c #514111",
"X c #534212",
"o c #554411",
"O c #6E5714",
"+ c #745C13",
"@ c #795E16",
"# c #806516",
"$ c #866917",
"% c #876A17",
"& c #917317",
"* c #9C7A17",
"= c #A78317",
"- c #B48E18",
"; c #BE9517",
": c #C39918",
"> c #C49A18",
", c #CDA119",
"< c #DBAB15",
"1 c #D8A917",
"2 c #D9A917",
"3 c #DFAF1A",
"4 c #E0AF17",
"5 c #E5B315",
"6 c #E6B417",
"7 c #EAB717",
"8 c #ECB915",
"9 c #EDBA17",
"0 c #EEBA17",
"q c #E1B019",
"w c #EAB819",
"e c #EBB819",
"r c #F0BC14",
"t c #F4BE15",
"y c #F2BE19",
"u c #F5BF18",
"i c #F4BE19",
"p c #F5C115",
"a c #F4C017",
"s c #F9C316",
"d c #F8C217",
"f c #FAC415",
"g c #FBC517",
"h c #FEC715",
"j c #FCC517",
"k c #FDC616",
"l c #FFC915",
"z c #FFC916",
"x c #FFC817",
"c c #FFCB16",
"v c #FFCB17",
"b c #FFCC15",
"n c #FFCE16",
"m c #FFCA18",
"M c #FFCD18",
"N c None",
/* pixels */
"NNNNNNNNNNNNNNNNNNNNNNNNNNNNNNNNNNNNNNNNNNNNNNNNNNNNNNNNNNNNNNNN",
"NNNNNNNNNNNNNNNNNNNNNNNNNNNNNNNNNNNNNNNNNNNNNNNNNNNNNNNNNNNNNNNN",
"NNNNNNNNNNNNNNNNNNNNNNNNNNNNNNNNNNNNNNNNNNNNNNNNNNNNNNNNNNNNNNNN",
"NNNNNNNNNNNNNNNNNNNNNNNNNNNNNNNNNNNNNNNNNNNNNNNNNNNNNNNNNNNNNNNN",
"NNNNNNNNNNNNNNNNNNNNNNNNNNNNNNNNNNNNNNNNNNNNNNNNNNNNNNNNNNNNNNNN",
"NNNNNNNNNNNNNNNNNNNNNNNNNNNNNNNNNNNNNNNNNNNNNNNNNNNNNNNNNNNNNNNN",
"NNNNNNNNNNNNNNNNNNNNNNNNNNNNNNNNNNNNNNNNNNNNNNNNNNNNNNNNNNNNNNNN",
"NNNNNNNNNNNNNNNNNNNNNNNNNNNNNNNNNNNNNNNNNNNNNNNNNNNNNNNNNNNNNNNN",
"NNNNNNNNNNNNNNNNNNNNNNNNNNNNNNNNNNNNNNNNNNNNNNNNNNNNNNNNNNNNNNNN",
"NNNNNNNNNNNNNNNNNNNNNNNNNNNNNNNNNNNNNNNNNNNNNNNNNNNNNNNNNNNNNNNN",
"NNNNNNNNNNNNNNNNNNNNNNNqnnnnnnnp%NNNNNNNNNNNNNNNNNNNNNNNNNNNNNNN",
"NNNNNNNNNNNNNNNNNNNNNNennnnnnnnnn*NNNNNNNNNNNNNNNNNNNNNNNNNNNNNN",
"NNNNNNNNNNNNNNNNNNNNNgnnnnnnnnnnnn:NNNNNNNNNNNNNNNNNNNNNNNNNNNNN",
"NNNNNNNNNNNNNNNNNNNNennnnnnnnnnnnnn$NNNNNNNNNNNNNNNNNNNNNNNNNNNN",
"NNNNNNNNNNNNNNNNNNNqnnnnnnnnnnnnnnnnNNNNNNNNNNNNNNNNNNNNNNNNNNNN",
"NNNNNNNNNNNNNNNNNNNnnnnnnnnnnnnnnnnnNNNNNNNNNNNNNNNNNNNNNNNNNNNN",
"NNNNNNNNNNNNNNNNNNNnnnnnnnnnnnnnnnnnNNNNNNNNNNNNNNNNNNNNNNNNNNNN",
"NNNNNNNNNNNNNNNNNNNnnnnnnnnnnnnnnnnnNNNNNNNNNNNNNNNNNNNNNNNNNNNN",
"NNNNNNNNNNNNNNNNNNNnnnnnnnnnnnnnnnnnNNNNNNNNNNNNNNNNNNNNNNNNNNNN",
"NNNNNNNNNNNNNNNNNNNnnnnnnnnnnnnnnnnnNNNNNNNNNNNNNNNNNNNNNNNNNNNN",
"NNNNNNNNNNNNNNNNNNNnnnnnnnnnnnnnnnnnNNNNNNNNNNNNNNNNNNNNNNNNNNNN",
"NNNNNNNNNNNNNNNNNNNnnnnnnnnnnnnnnnnnNNNNNNNNNNNNNNNNNNNNNNNNNNNN",
"NNNNNNNNNNNNNNNNNNNannnnnnnnnnnnnnnnNNNNNNNNNNNNNNNNNNNNNNNNNNNN",
"NNNNNNNNNNNNNNNNNNN%nnnnnnnnnnnnnnneNNNNNNNNNNNNNNNNNNNNNNNNNNNN",
"NNNNNNNNNNNNNNNNNNNN*nnnnnnnnnnnnniNNNNNNNNNNNNNNNNNNNNNNNNNNNNN",
"NNNNNNNNNNNNNNNNNNNNN>nnnnnnnnnnnyNNNNNNNNNNNNNNNNNNNNNNNNNNNNNN",
"NNNNNNNNNNNNNNNNNNNNNN$nnnnnnnnn7NNNNNNNNNNNNNNNNNNNNNNNNNNNNNNN",
"NNNNNNNNNNNNNNNNNNNNNNNNNNNNNNNNNNNNN,hmMnnnnp%NNNNNNNNNNNNNNNNN",
"NNNNNNNNNNNNNNNNNNNNNNNNNNNNNNNNNNN.2kmbnnnnnnn*NNNNNNNNNNNNNNNN",
"NNNNNNNNNNNNNNNNNNNNNNNNNNNNNNNNNNXwhmbnnnnnnnnn:NNNNNNNNNNNNNNN",
"NNNNNNNNNNNNNNNNNNNNNNNNNNNNNNNNNN3xmbnnnnnnnnnnn$NNNNNNNNNNNNNN",
"NNNNNNNNNNNNNNNNNNNNNNNNNNNNNNNNN1mbMnnnnnnnnnnnnnNNNNNNNNNNNNNN",
"NNNNNNNNNNNNNNNNNNNNNNNNNNNNNNNNNcMMnnnnnnnnnnnnnnNNNNNNNNNNNNNN",
"NNNNNNNNNNNNNNNNNNNNNNNNNNNNNNNNNbMnnnnnnnnnnnnnnnNNNNNNNNNNNNNN",
"NNNNNNNNNNNNNNNNNNNNNNNNNNNNNNNNNzvMnnnnnnnnnnnnnnNNNNNNNNNNNNNN",
"NNNNNNNNNNNNNNNNNNNNNNNNNNNNNNNNNszbMnnnnnnnnnnnnnNNNNNNNNNNNNNN",
"NNNNNNNNNNNNNNNNNNNqnnnnnnna#NNNNrflbnnnnnnnnnnnnnNNNNNNNNNNNNNN",
"NNNNNNNNNNNNNNNNNNennnnnnnnnn&NNN6tkvMnnnnnnnnnnnnNNNNNNNNNNNNNN",
"NNNNNNNNNNNNNNNNNgnnnnnnnnnnnn-NN<8dlbnnnnnnnnnnnnNNNNNNNNNNNNNN",
"NNNNNNNNNNNNNNNNennnnnnnnnnnnnnO ;5uhbnnnnnnnnnnnnNNNNNNNNNNNNNN",
"NNNNNNNNNNNNNNNqnnnnnnnnnnnnnnnnNo4rjvnnnnnnnnnnn9NNNNNNNNNNNNNN",
"NNNNNNNNNNNNNNNnnnnnnnnnnnnnnnnnNN+0gvnnnnnnnnnnaNNNNNNNNNNNNNNN",
"NNNNNNNNNNNNNNNnnnnnnnnnnnnnnnnnNNN=fmnnnnnnnnnaNNNNNNNNNNNNNNNN",
"NNNNNNNNNNNNNNNnnnnnnnnnnnnnnnnnNNNN@mnnnnnnnn9NNNNNNNNNNNNNNNNN",
"NNNNNNNNNNNNNNNnnnnnnnnnnnnnnnnnNNNNNNNNNNNNNNNNNNNNNNNNNNNNNNNN",
"NNNNNNNNNNNNNNNnnnnnnnnnnnnnnnnnNNNNNNNNNNNNNNNNNNNNNNNNNNNNNNNN",
"NNNNNNNNNNNNNNNnnnnnnnnnnnnnnnnnNNNNNNNNNNNNNNNNNNNNNNNNNNNNNNNN",
"NNNNNNNNNNNNNNNnnnnnnnnnnnnnnnnnNNNNNNNNNNNNNNNNNNNNNNNNNNNNNNNN",
"NNNNNNNNNNNNNNNannnnnnnnnnnnnnnnNNNNNNNNNNNNNNNNNNNNNNNNNNNNNNNN",
"NNNNNNNNNNNNNNN%nnnnnnnnnnnnnnn9NNNNNNNNNNNNNNNNNNNNNNNNNNNNNNNN",
"NNNNNNNNNNNNNNNN*nnnnnnnnnnnnnaNNNNNNNNNNNNNNNNNNNNNNNNNNNNNNNNN",
"NNNNNNNNNNNNNNNNN>nnnnnnnnnnnaNNNNNNNNNNNNNNNNNNNNNNNNNNNNNNNNNN",
"NNNNNNNNNNNNNNNNNN$nnnnnnnnn9NNNNNNNNNNNNNNNNNNNNNNNNNNNNNNNNNNN",
"NNNNNNNNNNNNNNNNNNNNNNNNNNNNNNNNNNNNNNNNNNNNNNNNNNNNNNNNNNNNNNNN",
"NNNNNNNNNNNNNNNNNNNNNNNNNNNNNNNNNNNNNNNNNNNNNNNNNNNNNNNNNNNNNNNN",
"NNNNNNNNNNNNNNNNNNNNNNNNNNNNNNNNNNNNNNNNNNNNNNNNNNNNNNNNNNNNNNNN",
"NNNNNNNNNNNNNNNNNNNNNNNNNNNNNNNNNNNNNNNNNNNNNNNNNNNNNNNNNNNNNNNN",
"NNNNNNNNNNNNNNNNNNNNNNNNNNNNNNNNNNNNNNNNNNNNNNNNNNNNNNNNNNNNNNNN",
"NNNNNNNNNNNNNNNNNNNNNNNNNNNNNNNNNNNNNNNNNNNNNNNNNNNNNNNNNNNNNNNN",
"NNNNNNNNNNNNNNNNNNNNNNNNNNNNNNNNNNNNNNNNNNNNNNNNNNNNNNNNNNNNNNNN",
"NNNNNNNNNNNNNNNNNNNNNNNNNNNNNNNNNNNNNNNNNNNNNNNNNNNNNNNNNNNNNNNN",
"NNNNNNNNNNNNNNNNNNNNNNNNNNNNNNNNNNNNNNNNNNNNNNNNNNNNNNNNNNNNNNNN",
"NNNNNNNNNNNNNNNNNNNNNNNNNNNNNNNNNNNNNNNNNNNNNNNNNNNNNNNNNNNNNNNN",
"NNNNNNNNNNNNNNNNNNNNNNNNNNNNNNNNNNNNNNNNNNNNNNNNNNNNNNNNNNNNNNNN"
};
