/* XPM */
static char *result[] = {
/* columns rows colors chars-per-pixel */
"64 64 23 1 ",
"  c black",
". c #580000",
"X c #BC2C00",
"o c #916109",
"O c #B42D6A",
"+ c #B52D6C",
"@ c #F5487B",
"# c #F54A7C",
"$ c #F67A71",
"% c #178000",
"& c #1B8E00",
"* c #26BD00",
"= c #2BCE00",
"- c #36F900",
"; c #F79300",
": c #F7DB72",
"> c #233895",
", c #4D8BA3",
"< c #FBF9B9",
"1 c #8FDDCE",
"2 c #F7D6C4",
"3 c #F7F9FA",
"4 c None",
/* pixels */
"4444444444444444444444444444444444444444444444444444444444444444",
"4444444444444444444444444444444444444444444444444444444444444444",
"4444444444444444444444444444444444444444444444444444444444444444",
"4444444444444444444444444444444444444444444444444444444444444444",
"4444444444444444444444444444444444444444444444444444444444444444",
"4444444444444444444444444444444444444444444444444444444444444444",
"4444444444444444444444444444444444444444444444444444444444444444",
"4444444444444444444444444444444444444444444444444444444444444444",
"4444444444444444444444444444444444444444444444444444444444444444",
"4444444444444444444444444444444444444444444444444444444444444444",
"4444444444444444444444444444444444444444444444444444444444444444",
"4444444444444444444444444444444444444444444444444444444444444444",
"44444444444444444444444444444....4444444444444444444444444444444",
"444444444444444444444444444..OOO:.444444444444444444444444444444",
"44444444444444444444444444.++@#:3.444444444444444444444444444444",
"4444444444444444444444444.O@@@++    4444444444444444444444444444",
"444444444444444444444444.O@@@+       444444444444444444444444444",
"44444444444444444444444.O@@@O      44444444444444444444444444444",
"4444444444444444444444.O@@@+   3344444  444444444444444444444444",
"4444444444444444444444.O@22   $3 4444 -% 44444444444444444444444",
"444444444444444444444.+@@$o2  $3 222o*%3344444444444444444444444",
"444444444444444444444.O+.$o2   22222o%33 44444444444444444444444",
"444444444444444444444.+. $$22 22 $$$o333 4   4444444444444444444",
"4444444444444444444444.     $22      3333 ---  44444444444444444",
"44444444444444444444444     $$$2   ; &33%---33- 4444444444444444",
"444444444444444444444444      $$2ooo *%&----- 3 4444444444444444",
"44444444444444444444444.+>>...,.o333o**--------- 444444444444444",
"44444444444444444444444>,,.+##..o333o*----*----- 444444444444444",
"4444444444444444444444>,1,.+#####o33o*---3 *---- 444444444444444",
"4444444444444444444444>11,.++#####oo *---3 *---- 444444444444444",
"444444444444444444444>,111,.++###+.; *--3  %*--* 444444444444444",
"444444444444444444444>>>>>1,..+++.   *33333 %=* 4444444444444444",
"444444444444444444444>,11>111,... ; &*33 333   44444444444444444",
"444444444444444444444>>,,>111111><  **3 4   44444444444444444444",
"4444444444444444444444>>>,,,,,111> %*3 4444444444444444444444444",
"44444444444444444444444>>,,,,,,11> *-3 4444444444444444444444444",
"44444444444444444444444 *>>>,,,,1> *-3 4444444444444444444444444",
"444444444444444444444444 * 3>,,,,   33 4444444444444444444444444",
"444444444444444444444444 * 33 >>>o: 3 44444444444444444444444444",
"444444444444444444444444 3*   ooo  -3 44444444444444444444444444",
"4444444444444444444444444 3**     333 44444444444444444444444444",
"4444444444444444444444444 3333 ; 333 444444444444444444444444444",
"44444444444444444444444444 33 ;;; 33 444444444444444444444444444",
"44444444444444444444444444 3  ;;; 3 4444444444444444444444444444",
"444444444444444444444444444  3   3 44444444444444444444444444444",
"4444444444444444444444444444      444444444444444444444444444444",
"444444444444444444444444444 XXXXX 444444444444444444444444444444",
"444444444444444444444444444 XXXXX3 44444444444444444444444444444",
"444444444444444444444444444 XXXXXX 44444444444444444444444444444",
"444444444444444444444444444        44444444444444444444444444444",
"4444444444444444444444444444444444444444444444444444444444444444",
"4444444444444444444444444444444444444444444444444444444444444444",
"4444444444444444444444444444444444444444444444444444444444444444",
"4444444444444444444444444444444444444444444444444444444444444444",
"4444444444444444444444444444444444444444444444444444444444444444",
"4444444444444444444444444444444444444444444444444444444444444444",
"4444444444444444444444444444444444444444444444444444444444444444",
"4444444444444444444444444444444444444444444444444444444444444444",
"4444444444444444444444444444444444444444444444444444444444444444",
"4444444444444444444444444444444444444444444444444444444444444444",
"4444444444444444444444444444444444444444444444444444444444444444",
"4444444444444444444444444444444444444444444444444444444444444444",
"4444444444444444444444444444444444444444444444444444444444444444",
"4444444444444444444444444444444444444444444444444444444444444444"
};
