/* XPM */
static char *result[] = {
/* columns rows colors chars-per-pixel */
"64 64 102 2 ",
"   c #434B00",
".  c #444C00",
"X  c #4A5200",
"o  c #4C5000",
"O  c #4D5100",
"+  c #4E5200",
"@  c #4F5300",
"#  c #4D5500",
"$  c #4F5800",
"%  c #505400",
"&  c #515500",
"*  c #525600",
"=  c #535700",
"-  c #505405",
";  c #515A00",
":  c #525B00",
">  c #545800",
",  c #545900",
"<  c #555900",
"1  c #555A00",
"2  c #565A00",
"3  c #575B00",
"4  c #535C00",
"5  c #545D00",
"6  c #575C00",
"7  c #545804",
"8  c #545904",
"9  c #585C00",
"0  c #585D00",
"q  c #595D00",
"w  c #5A5E00",
"e  c #5B5F00",
"r  c #585D03",
"t  c #5A5E02",
"y  c #555908",
"u  c #5A6300",
"i  c #5C6000",
"p  c #5C6100",
"a  c #5D6100",
"s  c #5D6200",
"d  c #5E6200",
"f  c #5E6300",
"g  c #5F6300",
"h  c #5C6102",
"j  c #5F6400",
"k  c #5E6700",
"l  c #5E6800",
"z  c #606400",
"x  c #616500",
"c  c #616600",
"v  c #626600",
"b  c #626700",
"n  c #636700",
"m  c #6D6500",
"M  c #6E6600",
"N  c #636800",
"B  c #646800",
"V  c #646900",
"C  c #656900",
"Z  c #656A00",
"A  c #666A00",
"S  c #666B00",
"D  c #676B00",
"F  c #636D00",
"G  c #676C00",
"H  c #686D00",
"J  c #696D00",
"K  c #696E00",
"L  c #6A6F00",
"P  c #6B7000",
"I  c #6C7000",
"U  c #6C7100",
"Y  c #6D7200",
"T  c #6E7300",
"R  c #6F7300",
"E  c #6F7400",
"W  c #707500",
"Q  c #707600",
"!  c #7E7000",
"~  c #7F7000",
"^  c #737801",
"/  c #757B00",
"(  c #767C00",
")  c #797F00",
"_  c #817300",
"`  c #8D7900",
"'  c #937E00",
"]  c #7A8000",
"[  c #7D8300",
"{  c #AE8D00",
"}  c #AF8E00",
"|  c #B08F00",
" . c #CFA300",
".. c #DEAD00",
"X. c #DFAE00",
"o. c #E0AF00",
"O. c #ECB700",
"+. c #EDB800",
"@. c #EFB800",
"#. c #EEB900",
"$. c #F9BF00",
"%. c #FFCE00",
/* pixels */
"Q Q Q Q Q Q Q Q Q Q Q Q Q Q Q Q Q Q Q Q Q Q Q Q Q Q Q Q Q Q Q Q Q Q Q Q Q Q Q Q Q Q Q Q Q Q Q Q Q Q Q Q Q Q Q Q Q Q Q Q Q Q Q Q ",
"Q Q Q Q Q Q Q Q Q Q Q Q Q Q Q Q Q Q Q Q Q Q Q Q Q Q Q Q Q Q Q Q Q Q Q Q Q Q Q Q Q Q Q Q Q Q Q Q Q Q Q Q Q Q Q Q Q Q Q Q Q Q Q Q ",
"Q Q Q Q Q Q Q Q Q Q Q Q Q Q Q Q Q Q Q Q Q Q Q Q Q Q Q Q Q Q Q Q Q Q Q Q Q Q Q Q Q Q Q Q Q Q Q Q Q Q Q Q Q Q Q Q Q Q Q Q Q Q Q Q ",
"Q Q Q Q Q Q Q Q Q Q Q Q Q Q Q Q Q Q Q Q Q Q Q Q Q Q Q Q Q Q Q Q Q Q Q Q Q Q Q Q Q Q Q Q Q Q Q Q Q Q Q Q Q Q Q Q Q Q Q Q Q Q Q Q ",
"Q Q Q Q Q Q Q Q Q Q Q Q Q Q Q Q Q Q Q Q Q Q Q Q Q Q Q Q Q Q Q Q Q Q Q Q Q Q Q Q Q Q Q Q Q Q Q Q Q Q Q Q Q Q Q Q Q Q Q Q Q Q Q Q ",
"Q Q Q Q Q Q Q Q Q Q Q Q Q Q Q Q Q Q Q Q Q W E Y L G V v z g f d d g j c B D K U T W Q Q Q Q Q Q Q Q Q Q Q Q Q Q Q Q Q Q Q Q Q Q ",
"Q Q Q Q Q Q Q Q Q Q Q Q Q Q Q Q Q Q Q Q W E Y K Z c a w 3 1 , > > < 2 0 i j B H P T E Q Q Q Q Q Q Q Q Q Q Q Q Q Q Q Q Q Q Q Q Q ",
"Q Q Q Q Q Q Q Q Q Q Q Q Q Q Q Q Q Q Q W E Y K V j w 1 * @ O o o o O + % > 9 s b ^ P T W Q Q Q Q Q Q Q Q Q Q Q Q Q Q Q Q Q Q Q Q ",
"Q Q Q Q Q Q Q Q Q Q Q Q Q Q Q Q Q Q Q E Y K V g q = +  .%.%.%.%.%.%.%.#.~ & 2 i G Y I T W Q Q Q Q Q Q Q Q Q Q Q Q Q Q Q Q Q Q Q ",
"Q Q Q Q Q Q Q Q Q Q Q Q Q Q Q Q Q Q W T L Z j q * M X.%.%.%.%.%.%.%.%.%.%.' 7 2 ; H J Y E Q Q Q Q Q Q Q Q Q Q Q Q Q Q Q Q Q Q Q ",
"Q Q Q Q Q Q Q Q Q Q Q Q Q Q Q Q Q Q E U G c w = m $.%.%.%.%.%.%.%.%.%.%.%.%.| 8 # 4 A ( ] / Q Q Q Q Q Q Q Q Q Q Q Q Q Q Q Q Q Q ",
"Q Q Q Q Q Q Q Q Q Q Q Q Q Q Q Q Q W T L V a 1 + X.%.%.%.%.%.%.%.%.%.%.%.%.%.%._ = $ H R ) W Q Q Q Q Q Q Q Q Q Q Q Q Q Q Q Q Q Q ",
"Q Q Q Q Q Q Q Q Q Q Q Q Q Q Q Q Q W Y J v w *  .%.%.%.%.%.%.%.%.%.%.%.%.%.%.%.%.% h A Y U E Q Q Q Q Q Q Q Q Q Q Q Q Q Q Q Q Q Q ",
"Q Q Q Q Q Q Q Q Q Q Q Q Q Q Q Q Q E U G z 3 @ %.%.%.%.%.%.%.%.%.%.%.%.%.%.%.%.%.. t B u U E Q Q Q Q Q Q Q Q Q Q Q Q Q Q Q Q Q Q ",
"Q Q Q Q Q Q Q Q Q Q Q Q Q Q Q Q Q E I S g 1 O %.%.%.%.%.%.%.%.%.%.%.%.%.%.%.%.%.  X : A I E Q Q Q Q Q Q Q Q Q Q Q Q Q Q Q Q Q Q ",
"Q Q Q Q Q Q Q Q Q Q Q Q Q Q Q Q Q E P A f , o %.%.%.%.%.%.%.%.%.%.%.%.%.%.%.%.%.- > d Z P E Q Q Q Q Q Q Q Q Q Q Q Q Q Q Q Q Q Q ",
"Q Q Q Q Q Q Q Q Q Q Q Q Q Q Q Q Q E P Z d > o %.%.%.%.%.%.%.%.%.%.%.%.%.%.%.%.%.  > d Z P E Q Q Q Q Q Q Q Q Q Q Q Q Q Q Q Q Q Q ",
"Q Q Q Q Q Q Q Q Q Q Q Q Q Q Q Q Q E P A d > o %.%.%.%.%.%.%.%.%.%.%.%.%.%.%.%.%.o > d Z P E Q Q Q Q Q Q Q Q Q Q Q Q Q Q Q Q Q Q ",
"Q Q Q Q Q Q Q Q Q Q Q Q Q Q Q Q Q E I S g < O %.%.%.%.%.%.%.%.%.%.%.%.%.%.%.%.%.o , f A P E Q Q Q Q Q Q Q Q Q Q Q Q Q Q Q Q Q Q ",
"Q Q Q Q Q Q Q Q Q Q Q Q Q Q Q Q Q E U G j 2 + %.%.%.%.%.%.%.%.%.%.%.%.%.%.%.%.%.O 1 g S I E Q Q Q Q Q Q Q Q Q Q Q Q Q Q Q Q Q Q ",
"Q Q Q Q Q Q Q Q Q Q Q Q Q Q Q Q Q W Y H c 0 % +.%.%.%.%.%.%.%.%.%.%.%.%.%.%.%.%.@ 3 z G U E Q Q Q Q Q Q Q Q Q Q Q Q Q Q Q Q Q Q ",
"Q Q Q Q Q Q Q Q Q Q Q Q Q Q Q Q Q W T K B i > ~ %.%.%.%.%.%.%.%.%.%.%.%.%.%.%.o.* w v H Y W Q Q Q Q Q Q Q Q Q Q Q Q Q Q Q Q Q Q ",
"Q Q Q Q Q Q Q Q Q Q Q Q Q Q Q Q Q Q T P D j 9 & ` %.%.%.%.%.%.%.%.%.%.%.%.%.+.+ 1 a V L T W Q Q Q Q Q Q Q Q Q Q Q Q Q Q Q Q Q Q ",
"Q Q Q Q Q Q Q Q Q Q Q Q Q Q Q Q Q Q E Y K B s 2 % } %.%.%.%.%.%.%.%.%.%.%.@.O = w c G U E Q Q Q Q Q Q Q Q Q Q Q Q Q Q Q Q Q Q Q ",
"Q Q Q Q Q Q Q Q Q Q Q Q Q Q Q Q Q Q W E U H b i 2 % ! %.%.%.%.%.%.%.%.%.o.+ = w z Z L T W Q Q Q Q Q Q Q Q Q Q Q Q Q Q Q Q Q Q Q ",
"Q Q Q Q Q Q Q Q Q Q Q Q Q Q Q Q Q Q Q W T P G v p 6 = % + O o o o o O @ * 1 w z C K Y E Q Q Q Q Q Q Q Q Q Q Q Q Q Q Q Q Q Q Q Q ",
"Q Q Q Q Q Q Q Q Q Q Q Q Q Q Q Q Q Q Q Q W T P G N g e 9 2 , > > > , 1 3 w a c Z K Y E W Q Q Q Q Q Q Q Q Q Q Q Q Q Q Q Q Q Q Q Q ",
"Q Q Q Q Q Q Q Q Q Q Q Q Q Q Q Q Q Q Q Q Q E T I J A n x g f d d d f g z v V G L Y T W W W E E E E E E E W W Q Q Q Q Q Q Q Q Q Q ",
"Q Q Q Q Q Q Q Q Q Q Q Q Q Q Q Q Q Q Q Q Q Q W T Y P K G D A Z Z Z A S G H L U T T E E T Y U I P P P I U Y T T E W Q Q Q Q Q Q Q ",
"Q Q Q Q Q Q Q Q Q Q Q Q Q Q Q Q Q Q Q Q Q Q Q W E T Y U U I P P P P I U Y T T E T T U L J G S A Z A S G H K P Y E W Q Q Q Q Q Q ",
"Q Q Q Q Q Q Q Q Q Q Q Q Q Q Q Q Q Q Q Q Q Q Q Q Q W W E E E E E E E E E W W W T Y L G V v z g f d d g j c B D K U T W Q Q Q Q Q ",
"Q Q Q Q Q Q Q Q Q W W E E E E E E E W W Q Q Q Q Q Q Q Q Q Q Q Q Q Q Q Q Q W E Y K Z c a w 3 1 , > > < 2 0 i j B H P T E Q Q Q Q ",
"Q Q Q Q Q Q Q W E T Y U I P P P I U Y T T E W Q Q Q Q Q Q Q Q Q Q Q Q Q W E Y K V j w 1 * @ O o o o O + % > 9 s b G P T W Q Q Q ",
"Q Q Q Q Q W E T U L J G S A Z A S G H K P Y E W Q Q Q Q Q Q Q Q Q Q Q Q E Y K V g q = +  .%.%.%.%.%.%.%.#.~ & 2 i v G I T W Q Q ",
"Q Q Q Q W E Y L G V v z g f d d g j c B D K U T W Q Q Q Q Q Q Q Q Q Q W T L Z j q * M X.%.%.%.%.%.%.%.%.%.%.` % 2 p N J Y E Q Q ",
"Q Q Q W E Y K Z c a w 3 1 , > > < 2 0 i j B H P T E Q Q Q Q Q Q Q Q Q E U G c w = m $.%.%.%.%.%.%.%.%.%.%.%.%.{ % 6 g A P T W Q ",
"Q Q W E Y K V j w 1 * @ O o o o O + % > 9 s b G P T W Q Q Q Q Q Q Q W T L V a 1 + X.%.%.%.%.%.%.%.%.%.%.%.%.%.%.! = e n K Y W Q ",
"Q Q E Y K V g q = +  .%.%.%.%.%.%.%.#.~ & 2 i v G I T W Q Q Q Q Q Q W Y J v w *  .%.%.%.%.%.%.%.%.%.%.%.%.%.%.%.%.% 9 x G U E Q ",
"Q W T L Z j q * M X.%.%.%.%.%.%.%.%.%.%.` % 2 p N J Y E Q Q Q Q Q Q E U G z 3 @ %.%.%.%.%.%.%.%.%.%.%.%.%.%.%.%.%.+ 2 g D U E Q ",
"Q E U G c w = m $.%.%.%.%.%.%.%.%.%.%.%.%.{ % 6 g A P T W Q Q Q Q Q E I S g 1 O %.%.%.%.%.%.%.%.%.%.%.%.%.%.%.%.%.O , f A I E Q ",
"W T L V a 1 + X.%.%.%.%.%.%.%.%.%.%.%.%.%.%.! = e n K Y W Q Q Q Q Q E P A f , o %.%.%.%.%.%.%.%.%.%.%.%.%.%.%.%.%.y > d Z P E Q ",
"W Y J v w *  .%.%.%.%.%.%.%.%.%.%.%.%.%.%.%.%.% 9 x G U E Q Q Q Q Q E P Z d > o %.%.%.%.%.%.%.%.%.%.%.%.%.%.%.%.%.- r d Z P E Q ",
"E U G z 3 @ %.%.%.%.%.%.%.%.%.%.%.%.%.%.%.%.%.+ 2 g D U E Q Q Q Q Q E P A d > o %.%.%.%.%.%.%.%.%.%.%.%.%.%.%.%.%.  r d Z ( E Q ",
"E I S g 1 O %.%.%.%.%.%.%.%.%.%.%.%.%.%.%.%.%.O , f A I E Q Q Q Q Q E I S g < O %.%.%.%.%.%.%.%.%.%.%.%.%.%.%.%.%.  , N P k E Q ",
"E P A f , o %.%.%.%.%.%.%.%.%.%.%.%.%.%.%.%.%.o > d Z P E Q Q Q Q Q E U G j 2 + %.%.%.%.%.%.%.%.%.%.%.%.%.%.%.%.%.O 1 B P l E Q ",
"E P Z d > o %.%.%.%.%.%.%.%.%.%.%.%.%.%.%.%.%.o > d Z P E Q Q Q Q Q W Y H c 0 % +.%.%.%.%.%.%.%.%.%.%.%.%.%.%.%.%.@ 3 5 u U E Q ",
"E P A d > o %.%.%.%.%.%.%.%.%.%.%.%.%.%.%.%.%.o > d Z P E Q Q Q Q Q W T K B i > ~ %.%.%.%.%.%.%.%.%.%.%.%.%.%.%...* w v H Y W Q ",
"E I S g < O %.%.%.%.%.%.%.%.%.%.%.%.%.%.%.%.%.o , f A P E Q Q Q Q Q Q T P D j 9 & ` %.%.%.%.%.%.%.%.%.%.%.%.%.+.+ 1 a V L T W Q ",
"E U G j 2 + %.%.%.%.%.%.%.%.%.%.%.%.%.%.%.%.%.O 1 g S I E Q Q Q Q Q Q E Y K B s 2 % } %.%.%.%.%.%.%.%.%.%.%.@.O = w c G U E Q Q ",
"W Y H c 0 % O.%.%.%.%.%.%.%.%.%.%.%.%.%.%.%.%.@ 3 z G U E Q Q Q Q Q Q W E U H b i 2 % ! %.%.%.%.%.%.%.%.%.o.+ = w z Z L T W Q Q ",
"W T K B i > ~ %.%.%.%.%.%.%.%.%.%.%.%.%.%.%.o.* w v H Y W Q Q Q Q Q Q Q W T P G v p 6 = % + O o o o o O @ * 1 w z C K Y E Q Q Q ",
"Q T P D j 9 & ` %.%.%.%.%.%.%.%.%.%.%.%.%.+.+ 1 a V L T W Q Q Q Q Q Q Q Q W T P G N g e 9 2 , > > > , 1 3 w a c Z K Y E W Q Q Q ",
"Q E Y K B s 2 % } %.%.%.%.%.%.%.%.%.%.%.@.O = w c G U E Q Q Q Q Q Q Q Q Q Q E T I J A n x g f d d d f g z v V G L Y E W Q Q Q Q ",
"Q W E U H b i 2 % ! %.%.%.%.%.%.%.%.%.o.+ = w z Z L T W Q Q Q Q Q Q Q Q Q Q Q W T Y P K G D A Z Z Z A S G H L U T E W Q Q Q Q Q ",
"Q Q W T P G v p 6 = % + O o o o o O @ * 1 w z C K Y E Q Q Q Q Q Q Q Q Q Q Q Q Q W E T Y U U I P P P P I U Y T E W Q Q Q Q Q Q Q ",
"Q Q Q W T P G N g e 9 2 , > > > , 1 3 w a c Z K Y E W Q Q Q Q Q Q Q Q Q Q Q Q Q Q Q W W E E E E E E E E E W W Q Q Q Q Q Q Q Q Q ",
"Q Q Q Q E T I J A n x g f d d d f g z v V G L Y E W Q Q Q Q Q Q Q Q Q Q Q Q Q Q Q Q Q Q Q Q Q Q Q Q Q Q Q Q Q Q Q Q Q Q Q Q Q Q ",
"Q Q Q Q Q W T Y P K G D A Z Z Z A S G H L U T E W Q Q Q Q Q Q Q Q Q Q Q Q [ [ Q Q Q Q Q Q Q Q Q Q Q Q Q Q Q Q Q Q Q Q Q Q Q Q Q ",
"Q Q Q Q Q Q W E T Y U U I P P P P I U Y T E W Q Q Q Q Q Q Q Q Q Q Q Q Q Q Q [ ( ( Q Q Q [ [ Q Q Q Q Q Q Q Q Q Q Q Q Q Q Q Q Q Q ",
"Q Q Q Q Q Q Q Q W W E E E E E E E E E W W Q Q Q Q Q Q Q Q Q Q Q Q Q Q Q Q Q F ( ( Q Q ( [ Q Q Q Q Q Q Q Q Q Q Q Q Q Q Q Q Q Q Q ",
"Q Q Q Q Q Q Q Q Q Q Q Q Q Q Q Q Q Q Q Q Q Q Q Q Q Q Q Q Q Q Q Q Q Q Q Q Q Q Q F F Q ( ( ( Q Q Q Q Q Q Q Q Q Q Q Q Q Q Q Q Q Q Q ",
"Q Q Q Q Q Q Q Q Q Q Q Q Q Q Q Q Q Q Q Q Q Q Q Q Q Q Q Q Q Q Q Q Q Q Q Q Q Q Q Q Q Q ( ( F Q Q Q Q Q Q Q Q Q Q Q Q Q Q Q Q Q Q Q ",
"Q Q Q Q Q Q Q Q Q Q Q Q Q Q Q Q Q Q Q Q Q Q Q Q Q Q Q Q Q Q Q Q Q Q Q Q Q Q Q Q Q Q F F Q Q Q Q Q Q Q Q Q Q Q Q Q Q Q Q Q Q Q Q ",
"Q Q Q Q Q Q Q Q Q Q Q Q Q Q Q Q Q Q Q Q Q Q Q Q Q Q Q Q Q Q Q Q Q Q Q Q Q Q Q Q Q Q Q Q Q Q Q Q Q Q Q Q Q Q Q Q Q Q Q Q Q Q Q Q "
};
