/* XPM */
static char *result[] = {
/* columns rows colors chars-per-pixel */
"64 64 13 1 ",
"  c #866917",
". c #876A17",
"X c #9C7A17",
"o c #C39918",
"O c #C49A18",
"+ c #EDBA17",
"@ c #E1B019",
"# c #EBB819",
"$ c #F5C115",
"% c #F4C017",
"& c #FBC517",
"* c #FFCE16",
"= c None",
/* pixels */
"==============================================@*******$.========",
"=============================================#**********X=======",
"============================================&************o======",
"===========================================#************** =====",
"==========================================@****************=====",
"==========================================*****************=====",
"==========================================*****************=====",
"==========================================*****************=====",
"==========================================*****************=====",
"==========================================*****************=====",
"==========================================*****************=====",
"==========================================*****************=====",
"==========================================%****************=====",
"==========================================.***************+=====",
"===========================================X*************%======",
"============================================O***********%=======",
"============================================= *********+========",
"================================================================",
"================================================================",
"================================================================",
"================================================================",
"================================================================",
"================================================================",
"================================================================",
"==========@*******$.============================================",
"=========#**********X===========================================",
"========&************o==========================================",
"=======#************** =========================================",
"======@****************=========================================",
"======*****************=========================================",
"======*****************=========================================",
"======*****************=========================================",
"======*****************=========================================",
"======*****************=========================================",
"======*****************=========================================",
"======*****************=========================================",
"======%****************=========================================",
"======.***************+=========================================",
"=======X*************%==========================================",
"========O***********%===========================================",
"========= *********+============================================",
"====================================@*******$.==================",
"===================================#**********X=================",
"==================================&************o================",
"=================================#************** ===============",
"================================@****************===============",
"================================*****************===============",
"================================*****************===============",
"================================*****************===============",
"================================*****************===============",
"================================*****************===============",
"================================*****************===============",
"================================*****************===============",
"================================%****************===============",
"================================.***************+===============",
"=================================X*************%================",
"==================================O***********%=================",
"=================================== *********+==================",
"================================================================",
"================================================================",
"================================================================",
"================================================================",
"================================================================",
"================================================================"
};
