/* XPM */
static char *result[] = {
/* columns rows colors chars-per-pixel */
"64 64 146 2 ",
"   c #2A1E0A",
".  c #33250E",
"X  c #22211F",
"o  c #3C2C12",
"O  c #2B2825",
"+  c #2D2B28",
"@  c #352B26",
"#  c #322E2C",
"$  c #3D3325",
"%  c #33312D",
"&  c #3D372E",
"*  c #333331",
"=  c #393431",
"-  c #3B3835",
";  c #3E3D39",
":  c #422E14",
">  c #453216",
",  c #493416",
"<  c #4F3A17",
"1  c #4C3619",
"2  c #4E3A1A",
"3  c #53371A",
"4  c #523C1B",
"5  c #5A3E1D",
"6  c #463827",
"7  c #4B3B26",
"8  c #443B2C",
"9  c #503D23",
"0  c #433B33",
"q  c #4A3F30",
"w  c #443F39",
"e  c #3E413B",
"r  c #56411D",
"t  c #5B431E",
"y  c #5F481F",
"u  c #61431F",
"i  c #62481F",
"p  c #636D00",
"a  c #707600",
"s  c #767C00",
"d  c #5C4421",
"f  c #5F4822",
"g  c #54432C",
"h  c #59452A",
"j  c #5C492A",
"k  c #4C4433",
"l  c #484837",
"z  c #43433C",
"x  c #4C453B",
"c  c #4F4C3C",
"v  c #514836",
"b  c #5B4A33",
"n  c #544D3B",
"m  c #594D3B",
"M  c #5A553E",
"N  c #634620",
"B  c #644B23",
"V  c #6A4E24",
"C  c #654E2B",
"Z  c #6B4F28",
"A  c #704F26",
"S  c #6D5226",
"D  c #6E5429",
"F  c #725526",
"G  c #745927",
"H  c #7C5D21",
"J  c #725629",
"K  c #7A572A",
"L  c #75592B",
"P  c #7B5C2C",
"I  c #685434",
"U  c #645739",
"Y  c #66583A",
"T  c #6B5C3D",
"R  c #765B32",
"E  c #7C5E32",
"W  c #7E612E",
"Q  c #7F6132",
"!  c #434440",
"~  c #494741",
"^  c #4C4941",
"/  c #534C42",
"(  c #584F45",
")  c #5C5444",
"_  c #58534D",
"`  c #5B5953",
"'  c #5C5E5E",
"]  c #665A40",
"[  c #6A5E42",
"{  c #6C6344",
"}  c #6D6946",
"|  c #766541",
" . c #7B6742",
".. c #766842",
"X. c #7C6B44",
"o. c #825E2D",
"O. c #815F31",
"+. c #84632E",
"@. c #88652F",
"#. c #86682F",
"$. c #8B6A2F",
"%. c #846432",
"&. c #8A6632",
"*. c #866933",
"=. c #8C6A34",
"-. c #8B673A",
";. c #866C3D",
":. c #8D6C39",
">. c #926D35",
",. c #986F36",
"<. c #936E39",
"1. c #986F38",
"2. c #87703F",
"3. c #8E703A",
"4. c #937037",
"5. c #9A7236",
"6. c #95723A",
"7. c #9A753B",
"8. c #9C793C",
"9. c #A27739",
"0. c #A37C3C",
"q. c #A97C3A",
"w. c #836D46",
"e. c #837045",
"r. c #8B7342",
"t. c #827349",
"y. c #977640",
"u. c #997740",
"i. c #9D7B41",
"p. c #A27D43",
"a. c #7D8300",
"s. c #A6813D",
"d. c #AC823D",
"f. c #A48243",
"g. c #AD8545",
"h. c #AD8945",
"j. c #AF8D4E",
"k. c #B08544",
"l. c #B38A46",
"z. c #BB8E44",
"x. c #B28B49",
"c. c #B98F4A",
"v. c #B5934E",
"b. c #BC934B",
"n. c #AF8E52",
"m. c #B39152",
/* pixels */
"a a a a a a a a a a a a a a a a a a a a a a a a a a a a a a a a a a a a a a a a a a a a a a a a a a a a a a a a a a a a a a a a ",
"a a a a a a a a a a a a a a a a a a a a a a a a a a a a a a a a a a a a a a a a a a a a a a a a a a a a a a a a a a a a a a a a ",
"a a a a a a a a a a a a a a a a a a a a a a a a a a a a a a a a a a a a a a a a a a a a a a a a a a a a a a a a a a a a a a a a ",
"a a a a a a a a a a a a a a a a a a a a a a a a a a a a a a a a a a a a a a a a a a a a a a a a a a a a a a a a a a a a a a a a ",
"a a a a a a a a a a a a a a a a a a z { T { [ { { { [ [ { [ { { { { } { [ { [ ] { { } { } { l a a a a a a a a a a a a a a a a a ",
"a a a a a a a a a a a a a a a a a a e.P i.v.q.5.=.>.>.>.4.<.6.u.y.6.6.i.p.p.7.>.&.*.u.n.n.%.4 a a a a a a a a a a a a a a a a a ",
"a a a a a a a a a a a a a a a a a a ..6.o.7.0.7.$.>.5.,.&.<.*.O.%.*.>.=.4.3.6.>.<.-.y.f.*.=.4 a a a a a a a a a a a a a a a a a ",
"a a a a a a a a a a a a a a a a a s ..8.4.P 8.s.>.>.$.,.<.5.7.<.1.1.4.7.6.7.4.4.i.7.6.P =.%.r a a a a a a a a a a a a a a a a a ",
"a a a a a a a a a a a a a a a a a a t.i.y.4.P 5.p.8.>.=.o.o.o.%.&.>.>.@.7.4.>.+.6.7.O.>.+.&.N a a a a a a a a a a a a a a a a a ",
"a a a a a a a a a a a a a a a a a a w.=.y.i.6.D P +.P P K F o.o.R K K J P Z S S P K 1.o.H P 5 a a a a a a a a a a a a a a a a a ",
"a a a a a a a a a a a a a a a a a a t.=.f.p.y.S a a a a a a a %.W S a a a a.s s p j.-.O.*.%.N a a a a a a a a a a a a a a a a a ",
"a a a a a a a a a a a a a a a a a a X.>.<.6.-.V a a a a a a a ,.4.W a.#.a p s s a k.O.%.1.+.4 a a a a a a a a a a a a a a a a a ",
"a a a a a a a a a a a a a a a a a a w.8.-.>.=.Z a a a a a a a 9.4.#.a a.a.s p s a p.*.%.5.%.5 a a a a a a a a a a a a a a a a a ",
"a a a a a a a a a a a a a a a a a a | -.o.*.:.C a a a a a a a q.6.*.a p s s a p p q.P +.,.&.3 a a a a a a a a a a a a a a a a a ",
"a a a a a a a a a a a a a a a a a a  .O.-.>.3.R a a a a a a a 9.4.*.a a p s a a p m.P &.5.&.9 a a a a a a a a a a a a a a a a a ",
"a a a a a a a a a a a a a a a a a a n b q w.6.E P ;.w.;.2.2.r.9.s.6.W Q e.2.r.r.r.b.R $.,.*.3 s a a a a a a a a a a a a a a a a ",
"a a a a a a a a a a a a a a a a a a z = - / R R %.>.&.&.=.$.>.%.%.$.@.&.>.>.<.1.1.l.O.O.<.%.N a a a a a a a a a a a a a a a a a ",
"a a a a a a a a a a a a a a a a a a M & % ~ O 8 *.<.=.>.>.=.1.=.>.&.>.&.>.$.&.o.*.k.o.%.8.%.r a a a a a a a a a a a a a a a a a ",
"a a a a a a a a a a a a a a a a a a ..8 # ^ - x L E P O.P o.E P J K o.o.o.o.o.F E k.O.=.%.-.V a a a a a a a a a a a a a a a a a ",
"a a a a a a a a a a a a a a a a a a | k # _ # & a a a a a a a >.G J a a a a a a a f.&.>.=.o.r a a a a a a a a a a a a a a a a a ",
"a a a a a a a a a a a a a a a a a a z ! % / g 9 a a a a a a a 9.O.%.a a a a a a a f.>.&.6.%.4 a a a a a a a a a a a a a a a a a ",
"a a a a a a a a a a a a a a a a a a ; + % ) P Z a a a a a a a 1.-.*.a a a a a a a x.>.-.6.%.r a a a a a a a a a a a a a a a a a ",
"a a a a a a a a a a a a a a a a a a M b b o.8.Z a a a a a a a p.E =.a a a a a a a m.<.>.6.&.t a a a a a a a a a a a a a a a a a ",
"a a a a a a a a a a a a a a a a a a X.6.&.>.p.J a a a a a a a =.L F a a a a a a a m.-.=.4.=.u a a a a a a a a a a a a a a a a a ",
"a a a a a a a a a a a a a a a a a a t.6.$.=.p.*.g.x.k.d.d.0.9.q.8.9.s.s.s.8.9.d.0.b.*.:.6.3.N a a a a a a a a a a a a a a a a a ",
"a a a a a a a a a a a a a a a a a a | 7.&.=.p.*.7.p.7.5.5.<.>.4.6.7.6.7.4.4.>.=.>.b.%.-.7.:.5 a a a a a a a a a a a a a a a a a ",
"a a a a a a a a a a a a a a a a a a w.6.&.>.p.%.5.7.7.5.4.5.4.8.6.3.3.#.&.*.=.$.+.z.Q :.4.=.5 a a a a a a a a a a a a a a a a a ",
"a a a a a a a a a a a a a a a a a a  .4.&.>.6.P $.&.+.$.#.%.=.#.*.=.3.#.&.+.%.#.&.q.%.#.4.#.3 a a a a a a a a a a a a a a a a a ",
"a a a a a a a a a a a a a a a a a a w.-.>.1.6.E &.%.=.*.&.%.3.=.:.<.=.=.>.>.>.>.>.c.P =.,.%.u a a a a a a a a a a a a a a a a a ",
"a a a a a a a a a a a a a a a a a a  .6.O.p.p.E i V S B B B B D V N B F A V A V i 0.L &.>.&.5 a a a a a a a a a a a a a a a a a ",
"a a a a a a a a a a a a a a a a a a w.8.-.6.u.R o.P =.=.*.#.W 7.=.W B P #.+.#.o.O.k.P %.>.&.t a a a a a a a a a a a a a a a a a ",
"a a a a a a a a a a a a a a a a a a X.6.>.=.<.-.o.<.&.&.*.+.%.0.7.+.P >.>.>.$.+.J ] ) m b I r a a a a a a a a a a a a a a a a a ",
"a a a a a a a a a a a a a a a a a a t.6.4.-.-.-.*.7.4.>.4.=.&.f.5.o.+.6.7.5.6.o.m j @ * ' v B a a a a a a a a a a a a a a a a a ",
"a a a a a a a a a a a a a a a a a a w.8.6.*.>.O.%.4.>.-.*.*.%.8.4.o.P =.>.=.%.F 7 W $ X % M y a a a a a a a a a a a a a a a a a ",
"a a a a a a a a a a a a a a a a a a ..7.:.=.-.o.$.#.$.=.&.#.#.7.<.+.o.+.$.=.@.P G #.h $ $ b 2 a a a a a a a a a a a a a a a a a ",
"a a a a a a a a a a a a a a a a a a ..4.4.&.&.L &.+.-.*.*.+.=.&.&.%.%.&.%.=.#.>.&.d.L V L L r a a a a a a a a a a a a a a a a a ",
"a a a a a a a a a a a a a a a a a a X.=.&.#.6.L &.o.@.&.&.>.4.>.:.#.#.#.#.+.+.=.*.j.%.P &.P 5 a a a a a a a a a a a a a a a a a ",
"a a a a a a a a a a a a a a a a a a X.3.+.#.4.J %.P +.&.#.$.:.#.W +.#.+.&.W %.*.%.j.E W %.%.5 a a a a a a a a a a a a a a a a a ",
"a a a a a a a a a a a a a a a a a a ..;.+.%.3.F W W W W +.+.+.+.P P +.+.+.o.+.W +.h.R P W W 3 a a a a a a a a a a a a a a a a a ",
"a a a a a a a a a a a a a a a a a a T %.P %.Q S i i V S A V V V S S S S i Z Z i i 0.L L %.P 1 a a a a a a a a a a a a a a a a a ",
"a a a a a a a a a a a a a a a a a a  .%.F O.E B i S r < < 3 2 2 < 2 4 2 2 r P S y 5.L G K P 1 a a a a a a a a a a a.a a a a a a ",
"a a a a a a a a a a a a a a a a a a [ Q L G F Z G G V r r t d t r r r 2 2 d =.G D >.D G %.G , a a a a a a.a.s a a s s a a a a a ",
"a a a a a a a a a a a a a a a a a a T F F R E Z G F D r f S D D F D L D S G >.P G 8.V G o.G 1 a a a a a a a.s s a p s a a a.a a ",
"a a a a a a a a a a a a a a a a a a m g 6 E *.R G G B r L *.*.*.3.3.=.&.>.>.:.=.F 8.B L P G > a a a a a a p s s s p a s s p a a ",
"a a a a a a a a a a a a.a a a a a a e x w ( R C D F B .   . o o o : : : : 3 +.A V 7.B D P G 3 a a a a a a.s p s s a a s s p a a ",
"a a a a a a a.a.s a a s s a a a a a e O * ^ 6 g L W W i t d B B B B N N B B $.o.L >.S D &.L 1 a a a a a p s s p s a a p p a a a ",
"a a a a a a a a.s s a p s a a a.a a T & # ~ # q L W W W P o.E P G L O.K o.K H F P 6.S F F D 3 a a a a a a p s p p a a a a a a a ",
"a a a a a a a p s s s p a s s p a a Y 8 * ` = 0 S W P W P L L D P F F F G K P Z P 8.L P L S 1 a a a a a a a a a a a a a a a a a ",
"a a a a a a a.s p s s a a s s p a a c = % ^ @ 8 G G G G F D V L D L L W W *.G G G >.K F L S o a a a a a a a a a a a a a a a a a ",
"a a a a a a p s s p s a a p p a a a ; w % / C N G F G Q P P P L L L D D D L F L F 5.G L W D 1 a a a a a a a a a a a a a a a a a ",
"a a a a a a a p s p p a a a a a a a l 8 8 D L B N t B y u t r i N d t f f B B B d 6.R F P S , a a a a a a a a a a a a a a a a a ",
"a a a a a a a a a a a a a a a a a a | R D L %.j V F i S F S S W B B i D D G F F S i.D L L F 4 a a a a a a a a a a a a a a a a a ",
"a a a a a a a a a a a a a a a a a a T L F D *.B S F P F G V B &.F B y S F D S F S 6.R L L G > a a a a a a a a a a a a a a a a a ",
"a a a a a a a a a a a a a a a a a a T %.D L %.S L Q P P K F V o.F F y G P L G K S 4.B D P L 3 a a a a a a a a a a a a a a a a a ",
"a a a a a a a a a a a a a a a a a a T L S F *.B D W L G K L Z o.F B y B D S F S i 7.C L L L : a a a a a a a a a a a a a a a a a ",
"a a a a a a a a a a a a a a a a a a T L F P +.i d N i B y r y Z y t r t r 5 d i r #.D C L D : a a a a a a a a a a a a a a a a a ",
"a a a a a a a a a a a a a a a a a a Y P L L S r P L L E R E Q %.W W Q W W W W D P +.y D B D > a a a a a a a a a a a a a a a a a ",
"a a a a a a a a a a a a a a a a a a Y W P B i D C B Z L R L L L L L D B B D D D S V B V B N , a a a a a a a a a a a a a a a a a ",
"a a a a a a a a a a a a a a a a a a T D r t D V S S Z +.L L D D j D f B B V D W S B D D N C > a a a a a a a a a a a a a a a a a ",
"a a a a a a a a a a a a a a a a a a U d t y f S G S F Z D V B V G C D D L G G G B B B S B f > a a a a a a a a a a a a a a a a a ",
"a a a a a a a a a a a a a a a a a a T r f S D L S S B S B B B B f D D D B f B V f d B B S B , a a a a a a a a a a a a a a a a a ",
"a a a a a a a a a a a a a a a a a a a a a a a a a a a a a a a a a a a a a a a a a a s s p a a a a a a a a a a a a a a a a a a a ",
"a a a a a a a a a a a a a a a a a a a a a a a a a a a a a a a a a a a a a a a a a a p p a a a a a a a a a a a a a a a a a a a a ",
"a a a a a a a a a a a a a a a a a a a a a a a a a a a a a a a a a a a a a a a a a a a a a a a a a a a a a a a a a a a a a a a a "
};
