/* XPM */
static char *result[] = {
/* columns rows colors chars-per-pixel */
"64 64 32 1 ",
"  c black",
". c #610000",
"X c #636D00",
"o c #706C00",
"O c #69710E",
"+ c #707400",
"@ c #707600",
"# c #767C00",
"$ c #697011",
"% c #697111",
"& c #687013",
"* c #CC1200",
"= c #996000",
"- c #C4116B",
"; c #C5106D",
": c #FF2D7A",
"> c #FF317B",
", c #FF716B",
"< c #008400",
"1 c #009200",
"2 c #7D8300",
"3 c #00C200",
"4 c #00D400",
"5 c green",
"6 c #FF8F00",
"7 c #FCDC5D",
"8 c #22349B",
"9 c #368CA6",
"0 c #75E0CE",
"q c #FBFAB1",
"w c #FDD5C1",
"e c #F7F9FA",
/* pixels */
"@@@@@@@@@@@@@@@@@@@@@@@@@@@@@@@@@@@@@@@@@@@@@@@@@@@@@@@@@@@@@@@@",
"@@@@@@@@@@@@@@@@@@@@@@@@@@@@@@@@@@@@@@@@@@@@@@@@@@@@@@@@@@@@@@@@",
"@@@@@@@@@@@@@@@@@@@@@@@@@@@@@@@@@@@@@@@@@@@@@@@@@@@@@@@@@@@@@@@@",
"@@@@@@@@@@@@@@@@@@@@@@@@@@@@@@@@@@@@@@@@@@@@@@@@@@@@@@@@@@@@@@@@",
"@@@@@@@@@@@@@@@@@@@@@@@@@@@@@@@@@@@@@@@@@@@@@@@@@@@@@@@@@@@@@@@@",
"@@@@@@@@@@@@@@@@@@@@@@@@@@@@@@@@@@@@@@@@@@@@@@@@@@@@@@@@@@@@@@@@",
"@@@@@@@@@@@@@@@@@@@@@@@@@@@@@@@@@@@@@@@@@@@@@@@@@@@@@@@@@@@@@@@@",
"@@@@@@@@@@@@@@@@@@@@@@@@@@@@@@@@@@@@@@@@2@@@@@@@@@@@@@@@@@@@@@@@",
"@@@@@@@@@@@@@@@@@@@@@@@@@@@@@@@@@@@@@@@@##@@@@@@@@@@@@@@@@@@@@@@",
"@@@@@@@@@@@@@@@@@@@@@@@@@@@@@@@@@@@@22#@X#@@@@@@@@@@@@@@@@@@@@@@",
"@@@@@@@@@@@@@@@@@@@@@@@@@@@@@@@@@@@@@2##XX@22#@@@@@@@@@@@@@@@@@@",
"@@@@@@@@@@@@@@@@@@@@@@@@@@@@@@@@@@#2@X##@X##2@@@@@@@@@@@@@@@@@@@",
"@@@@@@@@@@@@@@@@@@@@@@@@@@@@@@@@@@@2##X#@###@@@@@@@@@@@@@@@@@@@@",
"@@@@@@@@@@@@@@@@@@@@@@@@@@@@@@....@X##@XX##X@@@@@@@@@@@@@@@@@@@@",
"@@@@@@@@@@@@@@@@@@@@@@@@@@@@..---7.@X#@@XXX@@@@@@@@@@@@@@@@@@@@@",
"@@@@@@@@@@@@@@@@@@@@@@@@@@@.;;:>7e.@@X@##@@@@@@@@@@@@@@@@@@@@@@@",
"@@@@@@@@@@@@@@@@@@@@@@@@@@.-:::;;    @@2X@@@@@@@@@@@@@@@@@@@@@@@",
"@@@@@@@@@@@@@@@@@@@@@@@@@.-:::;       @X@@@@@@@@@@@@@@@@@@@@@@@@",
"@@@@@@@@@@@@@@@@@@@@@@@@.-:::-      @@@@@@@@@@@@@@@@@@@@@@@@@@@@",
"@@@@@@@@@@@@@@@@@@@@@@@.-:::;   ee@@@@@  @@@@@@@@@@@@@@@@@@@@@@@",
"@@@@@@@@@@@@@@@@@@@@@@@.-:ww   ,e @@@@ 5< @@@@@@@@@@@@@@@@@@@@@@",
"@@@@@@@@@@@@@@@@@@@@@@.;::,=w  ,e www=3<ee@@@@@@@@@@@@@@@@@@@@@@",
"@@@@@@@@@@@@@@@@@@@@@@.-;.,=w   wwwww=<ee @@@@@@@@@@@@@@@@@@@@@@",
"@@@@@@@@@@@@@@@@@@@@@@.;. ,,ww ww ,,,=eee @   @@@@@@@@@@@@@@@@@@",
"@@@@@@@@@@@@@@@@@@@@@@@.     ,ww      eeee 555  @@@@+@@@@@@@@@@@",
"@@@@@@@@@@@@@@@@@@@@@@@@     ,,,w   6 1ee<555ee5 @@@o@@@@@@@@@@@",
"@@@@@@@@@@@@@@@@@@@@@@@@@      ,,w=== 3<155555 e @@@@@@@@@@@@@@@",
"@@@@@@@@@@@@@@@@@@@@@@@@.;88...9.=eee=33555555555 @@@@@@@@@@@@@@",
"@@@@@@@@@@@@@@@@@@@@@@@@899.;>>..=eee=35555355555 @@@@@@@@@@@@@@",
"@@@@@@@@@@@@@@@@@@@@@@@8909.;>>>>>=ee=3555e 35555 @@@@@@@@@@@@@@",
"@@@@@@@@@@@@@@@@@@@@@@@8009.;;>>>>>== 3555e 35555 @@@@@@@@@@@@@@",
"@@@@@@@@@@@@@@@@@@@@@@890009.;;>>>;.6 355e  <3553 @@@@@@@@@@@@@@",
"@@@@@@@@@@@@@@@@@@@@@@8888809..;;;.   3eeeee <43 @@@@@@@@@@@@@@@",
"@@@@@@@@@@@@@@@@@@@@@@890080009... 6 13ee eee   @@@@O@@@@@@@@@@@",
"@@@@@@@@@@@@@@@@@@@@@@889980000008q  33e @   @@@@@@@$@@@@@@@@@@@",
"@@@@@@@@@@@@@@@@@@@@@@@888999990008 <3e @@@@@@@@@@@@%@@@@@@@@@@@",
"@@@@@@@@@@@@@@@@@@@@@@@@88999999008 35e @@@@@@@@@@@@&@@@@@@@@@@@",
"@@@@@@@@@@@@@@@@@@@@@@@@ 3888999908 35e @@@@@@@@@@@@@@@@@@@@@@@@",
"@@@@@@@@@@@@@@@@@@@@@@@@@ 3 e89999   ee @@@@@@@@@@@@@@@@@@@@@@@@",
"@@@@@@@@@@@@@@@@@@@@@@@@@ 3 ee 888=7 e @@@@@@@@@@@@@@@@@@@@@@@@@",
"@@@@@@@@@@@@@@@@@@@@@@@@@ e3   ===  5e @@@@@@@@@@@@@@@@@@2@@@@@@",
"@@@@@@@@@@@@@@@@@@@@@@@@@@ e33     eee @@@@@@@@@@@@@22#@@##@@@@@",
"@@@@@@@@@@@@@@@@@@@@@@@@@@ eeee 6 eee @@@@@@@@@@@@@@@2##@X#@@2@@",
"@@@@@@@@@@@@@@@@@@@@@@@@@@@ ee 666 ee @@@@@@@@@@@@@@@X###X@##X@@",
"@@@@@@@@@@@2@@@@@@@@@@@@@@@ e  666 e @@@@@@@@@@@@@@@2#X##@@##X@@",
"@@@@@@22#@@##@@@@@@@@@@@@@@@  e   e @@@@@@@@@@@@@@@@X##X#@@XX@@@",
"@@@@@@@2##@X#@@2@@@@@@@@@@@@@      @@@@@@@@@@@@@@@@@@X#XX@@@@@@@",
"@@@@@@@X###X@##X@@@@@@@@@@@@ ***** @@@@@@@@@@@@@@@@@@@@@@@@@@@@@",
"@@@@@@2#X##@@##X@@@@@@@@@@@@ *****e @@@@@@@@@@@@@@@@@@@@@@@@@@@@",
"@@@@@@X##X#@@XX@@@@@@@@@@@@@ ****** @@@@@@@@@@@@@@@@@@@@@@@@@@@@",
"@@@@@@@X#XX@@@@@@@@@@@@@@@@@        @@@@@@@@@@@@@@@@@@@@@@@@@@@@",
"@@@@@@@@@@@@@@@@@@@@@@@@@@@@@@@@@@@@@@@@@@@@@@@@@@@@@@@@@@@@@@@@",
"@@@@@@@@@@@@@@@@@@@@@@@@@@@@@@@@@@@@@@@@@@@@@@@@@@@@@@@@@@@@@@@@",
"@@@@@@@@@@@@@@@@@@@@@@@@@@@@@@@@@@@@@@@@@@@@@@@@@@@@@@@@@@@@@@@@",
"@@@@@@@@@@@@@@@@@@@@@@@@@@@@@@@@@@@@@@@@@@@@@@@@@@@@@@@@@@@@@@@@",
"@@@@@@@@@@@@@@@@@@@@@@@@@@@@@@@@@@@@@@@@@@@@@@@@@@@@@@@@@@@@@@@@",
"@@@@@@@@@@@@@@@@@@@@@@@@@@@@@@@@@@@@@@@@@@@@@@@@@@@@@@@@@@@@@@@@",
"@@@@@@@@@@@@@@@@@@@@@@@@@@@@@@@@@@@@@22@@@@@@@@@@@@@@@@@@@@@@@@@",
"@@@@@@@@@@@@@@@@@@@@@@@@@@@@@@@@@@@@@@2##@@@22@@@@@@@@@@@@@@@@@@",
"@@@@@@@@@@@@@@@@@@@@@@@@@@@@@@@@@@@@@@X##@@#2@@@@@@@@@@@@@@@@@@@",
"@@@@@@@@@@@@@@@@@@@@@@@@@@@@@@@@@@@@@@@XX@###@@@@@@@@@@@@@@@@@@@",
"@@@@@@@@@@@@@@@@@@@@@@@@@@@@@@@@@@@@@@@@@@##X@@@@@@@@@@@@@@@@@@@",
"@@@@@@@@@@@@@@@@@@@@@@@@@@@@@@@@@@@@@@@@@@XX@@@@@@@@@@@@@@@@@@@@",
"@@@@@@@@@@@@@@@@@@@@@@@@@@@@@@@@@@@@@@@@@@@@@@@@@@@@@@@@@@@@@@@@"
};
