/* XPM */
static char *_ed56b62ffed4533ff812f032c6abf97akOADCD0mjRfhcin[] = {
/* columns rows colors chars-per-pixel */
"64 64 158 2 ",
"   c #2D1A1A",
".  c #341E1E",
"X  c #262524",
"o  c #3A2121",
"O  c #302F2D",
"+  c #343331",
"@  c #3E3D3B",
"#  c #441D1D",
"$  c #481F1F",
"%  c #45201D",
"&  c #48221F",
"*  c #4B2120",
"=  c #542323",
"-  c #5C2424",
";  c #5F2925",
":  c #5E2828",
">  c #403F3C",
",  c #622726",
"<  c #682723",
"1  c #622A26",
"2  c #6D2926",
"3  c #642928",
"4  c #6C2B2B",
"5  c #742C25",
"6  c #7B2C24",
"7  c #732E2C",
"8  c #782F2A",
"9  c #6E312C",
"0  c #74322D",
"q  c #7C322C",
"w  c #7E392F",
"e  c #763230",
"r  c #793332",
"t  c #41403D",
"y  c #474643",
"u  c #504E4C",
"i  c #53514E",
"p  c #6C6966",
"a  c #6E6D69",
"s  c #706E6B",
"d  c #74736F",
"f  c #802F27",
"g  c #83342C",
"h  c #8A362C",
"j  c #85382F",
"k  c #8E392F",
"l  c #9A3625",
"z  c #9D3927",
"x  c #953C2D",
"c  c #993E2E",
"v  c #833631",
"b  c #843B31",
"n  c #8A3A32",
"m  c #913D32",
"M  c #923D32",
"N  c #913C31",
"B  c #913B31",
"V  c #9C3F30",
"C  c #A23E2A",
"Z  c #99402F",
"A  c #9C4332",
"S  c #A5422D",
"D  c #A4422F",
"F  c #A7442F",
"G  c #A5432E",
"H  c #A8452F",
"J  c #A8452F",
"K  c #A64A2E",
"L  c #A04330",
"P  c #A34532",
"I  c #A44531",
"U  c #A74531",
"Y  c #A44731",
"T  c #A74631",
"R  c #A44532",
"E  c #A54632",
"W  c #A54732",
"Q  c #A44732",
"!  c #A64732",
"~  c #A74732",
"^  c #A64632",
"/  c #A54530",
"(  c #A84731",
")  c #A94731",
"_  c #A94630",
"`  c #AA4731",
"'  c #A84632",
"]  c #A94632",
"[  c #A84732",
"{  c #A94732",
"}  c #AA4732",
"|  c #A94731",
" . c #A74832",
".. c #A64833",
"X. c #A94831",
"o. c #AA4831",
"O. c #A84832",
"+. c #A94832",
"@. c #A94932",
"#. c #A94933",
"$. c #AA4832",
"%. c #AB4832",
"&. c #AA4932",
"*. c #AB4932",
"=. c #AA4933",
"-. c #AB4933",
";. c #AB4932",
":. c #AB5132",
">. c #C3563F",
",. c #C3563F",
"<. c #C35E3F",
"1. c #846B66",
"2. c #856E69",
"3. c #87726C",
"4. c #89746E",
"5. c #8B7772",
"6. c #8B7771",
"7. c #8D7D77",
"8. c #8E7C76",
"9. c #8F7F79",
"0. c #90817B",
"q. c #91837D",
"w. c #92847E",
"e. c #91837C",
"r. c #938680",
"t. c #948983",
"y. c #958B84",
"u. c #958D87",
"i. c #958B85",
"p. c #978E88",
"a. c #97908A",
"s. c #99948D",
"d. c #9B9790",
"f. c #9B9891",
"g. c #9B9891",
"h. c #B49286",
"j. c #B89E91",
"k. c #B9A38F",
"l. c #B9A592",
"z. c #B9A495",
"x. c #BAA799",
"c. c #BCAE9F",
"v. c #BBAB9C",
"b. c #BDB09F",
"n. c #BCB1A2",
"m. c #BEB5A5",
"M. c #BEB4A7",
"N. c #BFB6A7",
"B. c #BEB3A3",
"V. c #BEB7A9",
"C. c #BFB8A9",
"Z. c #BFB9AA",
"A. c #BFB8AA",
"S. c #BFB9AB",
"D. c #C0B9AB",
"F. c #C0BAAC",
"G. c #C0BBAD",
"H. c #C0BBAD",
/* pixels */
"f.1 : r r r r r r r r r r r v r v r r r r r r r r r r r r r F.F.F.G.r r r r r r r r r r r e r r r r r r r r r r r v b b n n G.g.",
"1 : 3 -.*.*.%.%.%.#.M M Z M M r r r r v v r v r r M M M r M M F.G.r >.>.>.>.r r r r r r r r r r r r r r r -.r v =.n b n r r : g.",
"1 #.-.-.*.*.%.%.%.Z #.%.M T ....#.} #.#.#.%.%.%.M M M } M M M G.r >.-.%.%.%.} } ,.%.#.#.} -.%.-.#.-.] r -.-.....=.P n r r r : G.",
": #.-.-.%.%.%.%.%.*.#.%.-.M #.-.%.%.#.#.#.%.#.%.%.M %.%.#.M M G.r >.-.-.>.%.%.-.%.%.#.} >.] } R } -.-.] -.-.-.n =...n n n r : G.",
": } H #.o.o.M %.%.%.%.} M #.M M M M } #.-.] R R #.} T T M M M F.r *.%.%.%.%.%.*.-.-.#.#.] -.] ] } T n R -.-.] -.' ' n n n r r S.",
": } } } T x B B } } B } M M B B } M M } R ] ] U T T P T M r M F.r %.%.#.%.n #.#.-.-.T -...-.] U  .} n R ..n ] R ' =.=.V n r r G.",
": T n B n B B n x n x B B n B B M B B M M -.U U Q T r M M r M F.r %.-.v } n n #.R n n -.n -.n n n P n n n v n n n n n n n V v M.",
"- L k k H k k k k k n k B x r n B n B B B n B B n M r r r r r F.r #.T T } n #.n n n -.v n n v n n n v n n n v n n v v n n v r M.",
"= n k h h k 7 n k 7 k n k e 7 e e k k B C M B r n B r r r r r Z.r T v %.v v } v n n v n n h v n r r r v v v v v v v v v v v v y.",
"= h h h h k 7 7 7 7 7 n k k k 7 v 7 h k 7 r 7 v 8 e 7 e 7 0 e Z.r L v j v v n v v n v g ] v v e 7 7 v 7 g v g g v r C f 8 f r y.",
"= 7 h h h h h h 7 7 7 7 h h h h e e e 4 7 7 e e e 7 e = 7 7 e Z.e V j 7 v 7 v v g v g v v g 7 7 4 7 7 7 7 4 7 4 4 r 8 7 6 8 = t.",
"= 7 h 4 7 v 4 7 7 4 7 9 7 v 7 7 4 e 4 e 7 e 7 7 7 7 7 = - e = N.e h g 7 7 7 f 4 7 4 g 8 8 r 4 4 4 4 4 3 = 3 3 3 3 3 8 , 8 , 6.t.",
"= 4 4 4 v h 4 7 4 4 4 9 h 4 7 4 = * = 4 4 7 4 9 4 4 4 7 4 = = V.7 8 8 4 q 4 4 4 4 4 4 8 8 4 3 3 3 3 * * , $ $ , , , , , , 2 , y.",
"= 4 4 g 4 4 4 4 4 4 = = = * = = = = = * = 4 4 4 7 7 7 7 0 - : S.e 7 7 e 3 8 4 3 , , , , , , , * , $ $ $ : $ $ : - - : = , - $ i.",
"z.9.7 4 9 = = = : = = = = = = r.@ @ > > : : : o o : = = = = q.a 9.7 7 9 7 4 4 , , 3 , 3 3 3 4 3 = . . = = = . = 4 4 4 4 , = = 7.",
"g.d.d.d.g.g.S.S.S.S.S.G.G.S.S.g.g.g.g.g.g.d.g.S.S.G.g.g.f.f.d d d d.S.S.D.D.d.g.g.g.g.H.H.H.S.H.S.H.H.S.H.H.S.H.H.H.H.H.+ + g.d.",
"r r r r r , + y g.r r r r r r r r r r r r r r r r r r r r %.*.*.r r r n r r r g.r r %.%.r r r r ' -.-.-.r r r r r r r r %.*.r r ",
"} } %.r r r r + g.r r ,.,.,.%.%.%.%.*.*.#.%.%.%.*.*.#.%.%.%.*.*.-.*.*.n %.n r g.r %.%.%.%.%.r %.' -.-.] *.*.r %.%.%.*.>.%.*.%.#.",
"} -.-.%.] r r r d.r %.%.%.,.%.%.%.%.*.*.*.*.%.*.*.>.%.%.*.*.*.*.%.*.*.>.%.n r g.r %.%.>.%.%.r -.-.-.-.-.*.*.%.%.%.*.*.>.>.*.*.*.",
"} -.%.%.} ] r r d.r %.,.,.%.%.%.>.>.*.*.n n *.*.%.%.%.#.*.*.*.*.*.*.*.%.>.%.n d r %.%.>.>.%.%.%.-.M -.-.*.%.%.%.%.*.*.*.*.*.*.*.",
"%.B B B -.} r r D.r } #.o.n } } %.#.%.n n *.*.*.} n n n n n n n n n -.*.#.n r d r %.%.%.%.%.,.%.} } } M M -.#.%.%.%.#.#.%.%.%.o.",
"k B B B B } } e D.} } H j n H } o.n n n n n n n n n n n n n n n n n b Z n n n d r -.%.%.%.%.%.%.} } %.} %.B } T #.%.H #.%.#.o.o.",
"x k k B k k J 8 V.H H H H %._ } H j j n n j n n n n r n n n n n n n b n n n j d r } %.%.] ] -.C M M M M B B T T F T T D T F H x ",
"k k k k k k U e D.J J J j J j H j j j j j j j j j j j n v v v e j v T } H H j s e F } x B B B k B k k k B x V L k k k D D k n k ",
"h h h k h h h 7 D.2 C C v S g S j g g 7 7 g 7 v 7 7 7 7 8 7 7 7 g j j S j g 0 a r C k k h h h k k k h k h h k h k h h k h h 7 k ",
"h 4 h h g h h 7 D.2 g C C g q S g q q 7 g v q 7 q 7 7 7 8 7 7 7 q q g S q q 4 p B h h h h h h h h h C h h h h h h h h h h h 3 h ",
"f h f f g g 3 4 D.4 8 f 6 q q 6 q q 2 4 4 6 2 4 7 2 4 3 2 7 4 4 q q 6 q q 6 3 y.e f g f f 4 f g f f g g f 2 g f f g 2 g g f 3 4 ",
", f f f f f , , t.8 3 , < 3 , , < < 3 5 , , < 5 , 3 , , , , , , , , 5 5 ; , , y.7 , , - , , , , , < , f , , f f f f 6 , , , , , ",
", 6 6 6 6 6 - , O 5 , , , # # # - - - , - , , - , , , 2 2 5 - - - - ; 2 - - - q.3 - - - - - - , , - - - - , - - , - - 6 f 6 - - ",
"= 6 5 6 5 6 = - O X - # # = # - - - # - = - - < - = = = = = = - = - = = = # # q.3 = - - = = = # = # # = = = = = = = 6 = 6 = = = ",
", f h h , , , h.p X X $     - - # # - - - , - : , , , , , , 4 4 4 4 4 4 4 = x.s.a.e 7 e e , : = 4 = $ = $ = , , - - - = - = - - ",
"D.d.d.d.d.d.d d d d d.d.s.d.d.D.V.V.V.V.D.B.M.B.M.D.V.A.D.F.H.H.F.F.G.S.S.G.G.f.g.g.H.H.H.H.d H.D.D.D.D.H.F.S.F.F.D.D.D.D.D.D.D.",
"r r r r r r r r r r r r r r r r r r r r r A r S.G.1 t r e w r Z r r r r w w r r i w w w r r r r w w r r w y d g.g.0 r r r r r r ",
"%.%.#.*.>.>.>.>.>.%.%.%.-.-.-.-.=.r r A A A r r G.1 w r w r r i :.:.r w r r :.w :.:.<.<.:.:.:.:.:.:.:.w w 9 y g.r r *.*.r #.#.#.",
"%.*.*.*.*.*.*.*.-.%.-.-.-.-.-.-.-.-.=.r A A r r G.w w :.:.:.:.:.:.:.:.:.w :.:.:.<.:.:.<.<.:.:.:.:.:.:.:.:.:.: g.r #.r *.%.%.>.>.",
"*.*.*.*.*.*.*.*.%.%.-.-.-.-.-.-.' r =.r r A A r G.w :.w :.:.:.:.:.:.:.:.:.:.:.:.:.:.:.<.:.<.:.:.w w w w :.:.t g.r r *.*.%.#.>.>.",
"*.*.*.*.*.*.*.-.%.%.%.*.A A A -.-.r -.-.:...r r G.r :.:.:.:.:.:.:.:.:.<.:.:.:.:.:.:.<.:.:.<.:.:.<.:.b b b <.e g.r %.%.%.*.>.%.*.",
"*.A *.*.-.-.*.A %.%.A A A A A -.-.-.-.-.....A r G.r :.w :.<.w w :.:.:.:.:.:.:.:.:.<.:.:.:.:.:.:.:.w b b w i w g.r %.%.#.>.%.*.Z ",
"A -.*.A -.A A A A A A A A A A -.-.-.-.-.:.:.A 9 u r :.:.w w w <.:.:.:.:.:.<.w w :.w A w w Z :.:.:.w w b w e r g.q #.o.H ,.o.o.o.",
"A A A *.A -.A A A n A A P A A A A A A A A :.A + + w :.Z :.:.:.b w w w :.:.b w w w w w w w w w w w :.:.w Z 9 e g.0 } o.H F H Z Z ",
"v A A A A A A v A A v n v A A A A A A A A A A y d w :.:.w w b b w 1.:.Z :.w Z w w Z 9 w w w Z w w w w w w 0 0 g.7 } U C r q g x ",
"v v A A A A n v v A v A A A v A A A A A A A A r d Z w :.:.Z w w w b w w w w w w w w w w w 9 w w w :.w w w w 0 m.7 7 D V q J 8 S ",
"g v v v A v v v v v v r v v A v n v A A A A A r d w Z j w w w w w w w w w w w w w w i Z 9 w w w w w w K w w 0 m.4 7 U q q 8 8 r ",
"q r q q q v v r r r r e r v v A v A r v M V V r a 9 0 w w w w w w w w w w w K w 9 9 0 9 9 9 9 9 w w 0 w 0 9 0 m.4 C C 8 8 4 8 8 ",
"8 7 8 8 q q S q 7 7 7 e 7 r v r r V q v r r x 7 p 0 9 w 0 w K q w 0 w w 0 w K w 9 0 w 9 9 9 9 w 9 w 9 w 0 4 = b.j.C 4 5 3 4 8 8 ",
"7 5 8 8 7 7 8 7 4 = = 4 4 4 4 4 8 8 4 8 8 7 4 = 0.9 9 1 9 9 1 9 9 1 1 9 1 ; 1 9 9 1 1 1 & 1 1 5 1 1 ; ; 3 * * p., z , < , , 4 2 ",
"< < < < 2 2 2 , * * * , , , < , , 3 , , , , * , 6.& & 1 ; ; 2 1 ; ; ; ; 1 ; ; ; ; ; ; ; & & ; ; ; ; ; ; #   6.i., , - - $ - 2 2 ",
"= = < = = = - u u i u       # # $ $ # $ $ # $ 2.2.2.% % % % % % % % % % % % % % % 1.1.1.1.1.% ; ; = ; ;     6.i.2.- - # # - - = ",
"D.D.v.v.n.u.y.y.y.r.0.8.0.q.y.i.p.c.c.c.c.c.c.y.v.v.v.c.n.N.D.D.D.D.Z.D.V.N.D.D.D.d.a.a.i.y.y.y.p b.s Z.V.s.s.d.s.s.s.D.s.N.D.N.",
"8 r r r r r 1 1 r #.*.*.#.%.%.r G.: 3 r r r r r r r r r r r r r r r r r r r r r r r r r r r r d d d + ; r r r r r r r r r r r q ",
"L A V A A A r %.} %.%.%.*.%.%.r G.: 3 r -.r ] %.*.%.%.%.*.*.-.r #.%.*.*.%.%.#.%.} v r v v v r d d + ; w r r r r %.%.%.%.} } e V ",
"A A A A %.A %.A %.%.%.%.>.%.%.r S.: r ] -.-.-.#.*.%.%.%.%.#.#.-.%.%.%.%.%.%.#.-.} } -.-.v v n d d r r :.%.%.%.%.%.%.#.Z } } } } ",
"-.-.*.*.A *.#.#.*.*.A *.*.*.*.r S.3 r =.-.-.v >.*.*.v -.*.*.-.-.%.*.*.*.-.-.v -.n -.-.-.%.%.v d S.r #.%.%.%.,.o.A #. .F H H H H ",
"-.-.-.A *.A -.-.*.A *.A *.*.%.r g.r e r -.-.v -.*.v *.*.*.*.-.-.*.*.*.*.-.v v v v } %.-.%.%.v d.d.r o.#.o.o.#.Z H F Z c c F c F ",
"%.%.%.A *.A A A *.A *.A A A %.d.g.r r r v -.v ] v v v v v v n v v n v v v -.v -.v %.%.%.%.%.e e s.e  .T H H H F Z Z c c c x c D ",
"%.%.%.A A A n n n A A A A A *.r g.r r -.n v v ] *.v *.n n v v v n v v v n -.v n v v %.v %.] _ e s.e F F H Z H c c c x x x S C x ",
"T v A A v v A A v A A A Z A A 0 d r r v v v v v v v r v v v v v v v v v v v } } ] v g v 8 _ _ e p.7 J C C C x x x 7 8 x C x C C ",
"g v v v V g r v v v Z Z Z A V e s e g r g v v v v e v e r v g v v r q v r g r q r f 8 v v C C 4 r.7 8 8 r x 8 5 x 7 x h 5 C z C ",
"q r r q q q q g Z x c q c M c 4 p 7 r f r f v 7 7 7 e e 7 C r f q q 4 q 7 6 q 8 8 8 8 8 7 C C = 9.3 8 7 l 7 7 7 5 5 5 7 4 5 5 7 ",
"8 7 q 8 q q 8 q x x x k x x 7 4 r.- 8 r 8 r 8 4 e 4 4 7 4 4 4 7 4 4 7 4 7 7 4 7 7 7 7 2 8 z , * 5., 2 2 2 4 - 2 2 2 2 2 , 2 2 2 ",
"4 4 8 8 C 8 7 7 8 8 h x 4 4 4 4 0.= 4 7 7 4 3 4 3 4 3 4 , 3 3 , , , , , < 7 2 2 , 4 2 2 , - : , 3.- $ - - - 2 2 l 2 2 , - - , - ",
"* , 3 , 4 < < 8 h h < < h < , < 5.= * 3 3 , , 3 , , , , * , , , , , , - : - , < 2 - - - - # # i 1.$ - - - - < - = - = = - # # # ",
"$ $ * * & $ = &     . $ $ $ $ 6.4.4.$ $ - , , , - , - $ : - - : - = #   # # - = = = = # # # # u u # $ $ $ $ $ * $ $ # # # # # # ",
"c.D.c.v.x.z.z.l.l.k.z.z.z.z.z.z.z.x.x.x.j.D.v.v.v.v.v.x.x.c.x.v.x.x.x.v.v.c.v.v.x.j.j.j.j.j.j.x.x.v.z.j.x.x.j.z.z.j.x.x.v.v.z.j."
};
